<svg class="main-svg" xmlns="http://www.w3.org/2000/svg" xmlns:xlink="http://www.w3.org/1999/xlink" width="696" height="400" style="" viewBox="0 0 696 400"><rect x="0" y="0" width="696" height="400" style="fill: rgb(0, 0, 0); fill-opacity: 0;"/><defs id="defs-cbf0f4"><g class="clips"><clipPath id="clipcbf0f4xyplot" class="plotclip"><rect width="519" height="302"/></clipPath><clipPath class="axesclip" id="clipcbf0f4x"><rect x="60" y="0" width="519" height="400"/></clipPath><clipPath class="axesclip" id="clipcbf0f4y"><rect x="0" y="40" width="696" height="302"/></clipPath><clipPath class="axesclip" id="clipcbf0f4xy"><rect x="60" y="40" width="519" height="302"/></clipPath></g><g class="gradients"/><g class="patterns"/></defs><g class="bglayer"><rect class="bg" x="57" y="37" width="525" height="308" style="fill: rgb(0, 0, 0); fill-opacity: 0; stroke-width: 0;"/></g><g class="layer-below"><g class="imagelayer"/><g class="shapelayer"/></g><g class="cartesianlayer"><g class="subplot xy"><g class="layer-subplot"><g class="shapelayer"/><g class="imagelayer"/></g><g class="gridlayer"><g class="x"><path class="xgrid crisp" transform="translate(163.92000000000002,0)" d="M0,40v302" style="stroke: rgb(255, 255, 255); stroke-opacity: 1; stroke-width: 1px;"/><path class="xgrid crisp" transform="translate(267.83000000000004,0)" d="M0,40v302" style="stroke: rgb(255, 255, 255); stroke-opacity: 1; stroke-width: 1px;"/><path class="xgrid crisp" transform="translate(371.75,0)" d="M0,40v302" style="stroke: rgb(255, 255, 255); stroke-opacity: 1; stroke-width: 1px;"/><path class="xgrid crisp" transform="translate(475.67,0)" d="M0,40v302" style="stroke: rgb(255, 255, 255); stroke-opacity: 1; stroke-width: 1px;"/></g><g class="y"><path class="ygrid crisp" transform="translate(0,262.59000000000003)" d="M60,0h519" style="stroke: rgb(255, 255, 255); stroke-opacity: 1; stroke-width: 1px;"/><path class="ygrid crisp" transform="translate(0,198.28)" d="M60,0h519" style="stroke: rgb(255, 255, 255); stroke-opacity: 1; stroke-width: 1px;"/><path class="ygrid crisp" transform="translate(0,133.97)" d="M60,0h519" style="stroke: rgb(255, 255, 255); stroke-opacity: 1; stroke-width: 1px;"/><path class="ygrid crisp" transform="translate(0,69.66)" d="M60,0h519" style="stroke: rgb(255, 255, 255); stroke-opacity: 1; stroke-width: 1px;"/></g></g><g class="zerolinelayer"><path class="xzl zl crisp" transform="translate(60,0)" d="M0,40v302" style="stroke: rgb(255, 255, 255); stroke-opacity: 1; stroke-width: 2px;"/><path class="yzl zl crisp" transform="translate(0,326.9)" d="M60,0h519" style="stroke: rgb(255, 255, 255); stroke-opacity: 1; stroke-width: 2px;"/></g><path class="xlines-below"/><path class="ylines-below"/><g class="overlines-below"/><g class="xaxislayer-below"/><g class="yaxislayer-below"/><g class="overaxes-below"/><g class="plot" transform="translate(60,40)" clip-path="url(#clipcbf0f4xyplot)"><g class="scatterlayer mlayer"><g class="trace scatter trace699ab3" style="stroke-miterlimit: 2; opacity: 1;"><g class="fills"/><g class="errorbars"/><g class="lines"><path class="js-line" d="M0,286.69L49.58,285.08L93.85,275.28L108.22,266.26L130.44,239.18L150.38,193.11L156.41,174.26L161.73,155.71L181.67,77.56L202.07,19.29L207.83,16.27L210.04,17.33L218.26,32.09L228.48,72.13L230.98,84.46L239.12,126.24L246.97,162.3L251.82,178.89L259.76,194.71L267.85,195.1L270.17,193.89L272.49,191.15L280.56,178.55L290.97,160.39L293.34,156.84L301.34,148.54L309.39,147.92L314.08,151.78L322.15,165.83L334.87,203.07L342.92,229.75L353.32,258.9L355.67,263.92L363.71,276.9L371.76,283.07L376.44,285.23L384.49,286.59L433.85,286.9L435.87,286.9L519,286.9" style="vector-effect: non-scaling-stroke; fill: none; stroke: rgb(99, 110, 250); stroke-opacity: 1; stroke-width: 2px; opacity: 1;"/></g><g class="points"/><g class="text"/></g><g class="trace scatter trace121fa8" style="stroke-miterlimit: 2; opacity: 1;"><g class="fills"/><g class="errorbars"/><g class="lines"><path class="js-line" d="M0,286.71L49.58,285.27L93.85,276.43L108.22,268.24L130.44,243.39L150.38,200.42L156.41,182.55L161.73,164.81L181.67,87.64L202.07,22.86L207.83,16.59L210.04,16.23L218.26,25.6L228.48,60.33L230.98,71.89L249.37,161.63L251.82,170.72L259.76,191.39L267.85,196.24L270.17,195.93L272.49,194L280.56,183.09L288.62,168.2L293.34,160.74L301.34,150.53L309.39,147.21L311.75,147.86L314.08,149.31L322.15,160.4L332.54,187.29L334.87,194.67L350.98,246.35L353.32,252.64L355.67,258.33L363.71,273.57L374.1,283.31L376.44,284.34L384.49,286.35L392.54,286.65L397.23,286.9L405.28,286.9L519,286.9" style="vector-effect: non-scaling-stroke; fill: none; stroke: rgb(239, 85, 59); stroke-opacity: 1; stroke-width: 2px; opacity: 1;"/></g><g class="points"/><g class="text"/></g><g class="trace scatter tracec7b55f" style="stroke-miterlimit: 2; opacity: 1;"><g class="fills"/><g class="errorbars"/><g class="lines"><path class="js-line" d="M0,286.78L49.58,285.88L93.85,280.19L108.22,274.79L130.44,257.82L150.38,226.63L156.41,212.94L161.73,198.9L181.67,130.87L202.07,51.1L207.83,33.91L210.04,28.52L218.26,16.59L226.13,20.17L228.48,24.24L230.98,30.24L239.12,59.38L259.76,160.07L267.85,185.92L272.49,193.95L280.56,196.57L290.97,184.13L293.34,179.93L301.34,165.65L309.39,153.56L314.08,149.29L322.15,147.82L330.2,155.64L332.54,159.62L334.87,164.42L342.92,185.78L363.71,251.39L371.76,268.83L376.44,275.85L384.49,283.09L397.23,286.53L405.28,286.86L519,286.9" style="vector-effect: non-scaling-stroke; fill: none; stroke: rgb(0, 204, 150); stroke-opacity: 1; stroke-width: 2px; opacity: 1;"/></g><g class="points"/><g class="text"/></g><g class="trace scatter trace6a5140" style="stroke-miterlimit: 2; opacity: 1;"><g class="fills"/><g class="errorbars"/><g class="lines"><path class="js-line" d="M0,286.8L49.58,285.98L93.85,280.85L108.22,275.95L130.44,260.45L150.38,231.64L156.41,218.86L161.73,205.67L181.67,140.48L202.07,59.78L207.83,40.88L210.04,34.64L218.26,18.62L226.13,17.31L228.48,19.88L230.98,24.29L239.12,48.98L251.82,110.03L259.76,149.36L270.17,185.78L272.49,190.38L280.56,197.36L288.62,190.68L290.97,188.16L293.34,184.27L309.39,156.78L311.75,153.94L314.08,151.41L322.15,147.37L330.2,152.22L332.54,155.35L334.87,159.34L342.92,178.4L363.71,244.48L371.76,264.15L376.44,272.41L384.49,281.46L397.23,286.24L405.28,286.81L519,286.9" style="vector-effect: non-scaling-stroke; fill: none; stroke: rgb(171, 99, 250); stroke-opacity: 1; stroke-width: 2px; opacity: 1;"/></g><g class="points"/><g class="text"/></g><g class="trace scatter trace438549" style="stroke-miterlimit: 2; opacity: 1;"><g class="fills"/><g class="errorbars"/><g class="lines"><path class="js-line" d="M0,286.79L49.58,285.98L93.85,280.83L108.22,275.91L130.44,260.37L150.38,231.48L156.41,218.66L161.73,205.45L181.67,140.16L202.07,59.48L207.83,40.63L210.04,34.41L218.26,18.53L226.13,17.38L228.48,20L230.98,24.47L239.12,49.3L251.82,110.46L259.76,149.73L270.17,185.96L272.49,190.52L280.56,197.34L288.62,190.56L290.97,188.02L293.34,184.12L309.39,156.66L311.75,153.83L314.08,151.32L322.15,147.37L330.2,152.32L332.54,155.49L334.87,159.51L342.92,178.66L363.71,244.75L371.76,264.33L376.44,272.55L384.49,281.52L397.23,286.25L405.28,286.82L519,286.9" style="vector-effect: non-scaling-stroke; fill: none; stroke: rgb(255, 161, 90); stroke-opacity: 1; stroke-width: 2px; opacity: 1;"/></g><g class="points"/><g class="text"/></g><g class="trace scatter trace33afac" style="stroke-miterlimit: 2; opacity: 1;"><g class="fills"/><g class="errorbars"/><g class="lines"><path class="js-line" d="M0,286.11L31.28,283.87L49.58,280.36L93.85,249.03L103.92,232.39L108.22,223.58L130.44,159.71L156.41,59.26L161.73,42.03L181.67,18.42L202.07,97.64L207.83,117.47L210.04,128.83L218.26,165.84L226.13,187.68L228.48,191.61L230.98,193.88L239.12,193.05L246.97,181.94L251.82,174.11L259.76,160.21L267.85,149.67L270.17,147.92L272.49,146.73L280.56,148.15L288.62,159.21L290.97,164.09L293.34,169.84L301.34,193.3L314.08,235.4L322.15,257.79L332.54,276.23L334.87,278.73L342.92,284.35L350.98,286L355.67,286.72L363.71,286.89L519,286.9" style="vector-effect: non-scaling-stroke; fill: none; stroke: rgb(25, 211, 243); stroke-opacity: 1; stroke-width: 2px; opacity: 1;"/></g><g class="points"/><g class="text"/></g><g class="trace scatter traced968f9" style="stroke-miterlimit: 2; opacity: 1;"><g class="fills"/><g class="errorbars"/><g class="lines"><path class="js-line" d="M0,286.9L161.73,286.25L181.67,285.36L210.04,281.75L218.26,279.64L230.98,274.68L239.12,269.95L249.37,261.57L251.82,259.07L259.76,249.34L267.85,236.47L272.49,227.49L280.56,208.81L293.34,170.6L301.34,141.6L322.15,59.49L330.2,33.68L334.87,23.05L342.92,15.1L350.98,23.28L353.32,28.71L355.67,35.62L363.71,67.85L376.44,132.86L384.49,168.5L392.54,190.48L394.89,194.3L397.23,196.4L405.28,195.8L418.27,176.64L420.28,172.97L428.66,158.94L430.67,156.17L435.87,150.66L436.45,150.22L439.05,148.72L441.06,148.14L444.24,148.31L446.26,149.16L449.44,151.71L451.45,154.09L454.64,159.05L456.65,162.93L461.84,175.34L462.43,176.93L468.21,194.23L470.23,200.75L485.81,249.8L487.83,254.97L493.61,267.42L494.19,268.47L499.39,276.17L501.4,278.41L506.6,282.58L508.61,283.67L514.39,285.63L514.98,285.75L519,286.36" style="vector-effect: non-scaling-stroke; fill: none; stroke: rgb(255, 102, 146); stroke-opacity: 1; stroke-width: 2px; opacity: 1;"/></g><g class="points"/><g class="text"/></g></g></g><g class="overplot"/><path class="xlines-above crisp" d="M56,345.5H579" style="fill: none; stroke-width: 1px; stroke: rgb(0, 0, 0); stroke-opacity: 1;"/><path class="ylines-above crisp" d="M56.5,40V345" style="fill: none; stroke-width: 1px; stroke: rgb(0, 0, 0); stroke-opacity: 1;"/><g class="overlines-above"/><g class="xaxislayer-above"><g class="xtick"><text text-anchor="middle" x="0" y="360.4" transform="translate(60,0)" style="font-family: Arial; font-size: 12px; fill: rgb(0, 0, 0); fill-opacity: 1; white-space: pre; opacity: 1;">0</text></g><g class="xtick"><text text-anchor="middle" x="0" y="360.4" style="font-family: Arial; font-size: 12px; fill: rgb(0, 0, 0); fill-opacity: 1; white-space: pre; opacity: 1;" transform="translate(163.92000000000002,0)">1</text></g><g class="xtick"><text text-anchor="middle" x="0" y="360.4" style="font-family: Arial; font-size: 12px; fill: rgb(0, 0, 0); fill-opacity: 1; white-space: pre; opacity: 1;" transform="translate(267.83000000000004,0)">2</text></g><g class="xtick"><text text-anchor="middle" x="0" y="360.4" style="font-family: Arial; font-size: 12px; fill: rgb(0, 0, 0); fill-opacity: 1; white-space: pre; opacity: 1;" transform="translate(371.75,0)">3</text></g><g class="xtick"><text text-anchor="middle" x="0" y="360.4" style="font-family: Arial; font-size: 12px; fill: rgb(0, 0, 0); fill-opacity: 1; white-space: pre; opacity: 1;" transform="translate(475.67,0)">4</text></g></g><g class="yaxislayer-above"><g class="ytick"><text text-anchor="end" x="53.6" y="4.199999999999999" transform="translate(0,326.9)" style="font-family: Arial; font-size: 12px; fill: rgb(0, 0, 0); fill-opacity: 1; white-space: pre; opacity: 1;">0</text></g><g class="ytick"><text text-anchor="end" x="53.6" y="4.199999999999999" style="font-family: Arial; font-size: 12px; fill: rgb(0, 0, 0); fill-opacity: 1; white-space: pre; opacity: 1;" transform="translate(0,262.59000000000003)">0.2</text></g><g class="ytick"><text text-anchor="end" x="53.6" y="4.199999999999999" style="font-family: Arial; font-size: 12px; fill: rgb(0, 0, 0); fill-opacity: 1; white-space: pre; opacity: 1;" transform="translate(0,198.28)">0.4</text></g><g class="ytick"><text text-anchor="end" x="53.6" y="4.199999999999999" style="font-family: Arial; font-size: 12px; fill: rgb(0, 0, 0); fill-opacity: 1; white-space: pre; opacity: 1;" transform="translate(0,133.97)">0.6</text></g><g class="ytick"><text text-anchor="end" x="53.6" y="4.199999999999999" style="font-family: Arial; font-size: 12px; fill: rgb(0, 0, 0); fill-opacity: 1; white-space: pre; opacity: 1;" transform="translate(0,69.66)">0.8</text></g></g><g class="overaxes-above"/></g></g><g class="polarlayer"/><g class="smithlayer"/><g class="ternarylayer"/><g class="geolayer"/><g class="funnelarealayer"/><g class="pielayer"/><g class="iciclelayer"/><g class="treemaplayer"/><g class="sunburstlayer"/><g class="glimages"/><defs id="topdefs-cbf0f4"><g class="clips"/><clipPath id="legendcbf0f4"><rect width="97" height="143" x="0" y="0"/></clipPath></defs><g class="layer-above"><g class="imagelayer"/><g class="shapelayer"/></g><g class="infolayer"><g class="legend" pointer-events="all" transform="translate(589.38,40)"><rect class="bg" shape-rendering="crispEdges" style="stroke: rgb(68, 68, 68); stroke-opacity: 1; fill: rgb(0, 0, 0); fill-opacity: 0; stroke-width: 0px;" width="97" height="143" x="0" y="0"/><g class="scrollbox" transform="" clip-path="url(#legendcbf0f4)"><g class="groups"><g class="traces" transform="translate(0,14.5)" style="opacity: 1;"><text class="legendtext" text-anchor="start" x="40" y="4.680000000000001" style="font-family: Arial; font-size: 12px; fill: rgb(0, 0, 0); fill-opacity: 1; white-space: pre;">Sample 1</text><g class="layers" style="opacity: 1;"><g class="legendfill"/><g class="legendlines"><path class="js-line" d="M5,0h30" style="fill: none; stroke: rgb(99, 110, 250); stroke-opacity: 1; stroke-width: 2px;"/></g><g class="legendsymbols"><g class="legendpoints"/></g></g><rect class="legendtoggle" x="0" y="-9.5" width="91.03125" height="19" style="fill: rgb(0, 0, 0); fill-opacity: 0;"/></g><g class="traces" transform="translate(0,33.5)" style="opacity: 1;"><text class="legendtext" text-anchor="start" x="40" y="4.680000000000001" style="font-family: Arial; font-size: 12px; fill: rgb(0, 0, 0); fill-opacity: 1; white-space: pre;">Sample 2</text><g class="layers" style="opacity: 1;"><g class="legendfill"/><g class="legendlines"><path class="js-line" d="M5,0h30" style="fill: none; stroke: rgb(239, 85, 59); stroke-opacity: 1; stroke-width: 2px;"/></g><g class="legendsymbols"><g class="legendpoints"/></g></g><rect class="legendtoggle" x="0" y="-9.5" width="91.03125" height="19" style="fill: rgb(0, 0, 0); fill-opacity: 0;"/></g><g class="traces" transform="translate(0,52.5)" style="opacity: 1;"><text class="legendtext" text-anchor="start" x="40" y="4.680000000000001" style="font-family: Arial; font-size: 12px; fill: rgb(0, 0, 0); fill-opacity: 1; white-space: pre;">Sample 3</text><g class="layers" style="opacity: 1;"><g class="legendfill"/><g class="legendlines"><path class="js-line" d="M5,0h30" style="fill: none; stroke: rgb(0, 204, 150); stroke-opacity: 1; stroke-width: 2px;"/></g><g class="legendsymbols"><g class="legendpoints"/></g></g><rect class="legendtoggle" x="0" y="-9.5" width="91.03125" height="19" style="fill: rgb(0, 0, 0); fill-opacity: 0;"/></g><g class="traces" transform="translate(0,71.5)" style="opacity: 1;"><text class="legendtext" text-anchor="start" x="40" y="4.680000000000001" style="font-family: Arial; font-size: 12px; fill: rgb(0, 0, 0); fill-opacity: 1; white-space: pre;">Sample 4</text><g class="layers" style="opacity: 1;"><g class="legendfill"/><g class="legendlines"><path class="js-line" d="M5,0h30" style="fill: none; stroke: rgb(171, 99, 250); stroke-opacity: 1; stroke-width: 2px;"/></g><g class="legendsymbols"><g class="legendpoints"/></g></g><rect class="legendtoggle" x="0" y="-9.5" width="91.03125" height="19" style="fill: rgb(0, 0, 0); fill-opacity: 0;"/></g><g class="traces" transform="translate(0,90.5)" style="opacity: 1;"><text class="legendtext" text-anchor="start" x="40" y="4.680000000000001" style="font-family: Arial; font-size: 12px; fill: rgb(0, 0, 0); fill-opacity: 1; white-space: pre;">Sample 5</text><g class="layers" style="opacity: 1;"><g class="legendfill"/><g class="legendlines"><path class="js-line" d="M5,0h30" style="fill: none; stroke: rgb(255, 161, 90); stroke-opacity: 1; stroke-width: 2px;"/></g><g class="legendsymbols"><g class="legendpoints"/></g></g><rect class="legendtoggle" x="0" y="-9.5" width="91.03125" height="19" style="fill: rgb(0, 0, 0); fill-opacity: 0;"/></g><g class="traces" transform="translate(0,109.5)" style="opacity: 1;"><text class="legendtext" text-anchor="start" x="40" y="4.680000000000001" style="font-family: Arial; font-size: 12px; fill: rgb(0, 0, 0); fill-opacity: 1; white-space: pre;">Sample 6</text><g class="layers" style="opacity: 1;"><g class="legendfill"/><g class="legendlines"><path class="js-line" d="M5,0h30" style="fill: none; stroke: rgb(25, 211, 243); stroke-opacity: 1; stroke-width: 2px;"/></g><g class="legendsymbols"><g class="legendpoints"/></g></g><rect class="legendtoggle" x="0" y="-9.5" width="91.03125" height="19" style="fill: rgb(0, 0, 0); fill-opacity: 0;"/></g><g class="traces" transform="translate(0,128.5)" style="opacity: 1;"><text class="legendtext" text-anchor="start" x="40" y="4.680000000000001" style="font-family: Arial; font-size: 12px; fill: rgb(0, 0, 0); fill-opacity: 1; white-space: pre;">Target</text><g class="layers" style="opacity: 1;"><g class="legendfill"/><g class="legendlines"><path class="js-line" d="M5,0h30" style="fill: none; stroke: rgb(255, 102, 146); stroke-opacity: 1; stroke-width: 2px;"/></g><g class="legendsymbols"><g class="legendpoints"/></g></g><rect class="legendtoggle" x="0" y="-9.5" width="91.03125" height="19" style="fill: rgb(0, 0, 0); fill-opacity: 0;"/></g></g></g><rect class="scrollbar" rx="20" ry="3" width="0" height="0" style="fill: rgb(128, 139, 164); fill-opacity: 1;" x="0" y="0"/></g><g class="g-gtitle"><text class="gtitle" x="34.800000000000004" y="20" text-anchor="start" dy="0em" style="font-family: Arial; font-size: 17px; fill: rgb(0, 0, 0); opacity: 1; font-weight: normal; white-space: pre;">Ethylene homo-polymerization</text></g><g class="g-xtitle"><text class="xtitle" x="319.5" y="390.30625" text-anchor="middle" style="font-family: Arial; font-size: 17px; fill: rgb(0, 0, 0); opacity: 1; font-weight: normal; white-space: pre;">Chain length</text></g><g class="g-ytitle" transform="translate(4.994140625,0)"><text class="ytitle" transform="rotate(-90,10.006250000000001,191)" x="10.006250000000001" y="191" text-anchor="middle" style="font-family: Arial; font-size: 17px; fill: rgb(0, 0, 0); opacity: 1; font-weight: normal; white-space: pre;">MWD</text></g></g></svg>