<?xml version="1.0" encoding="utf-8" standalone="no"?>
<!DOCTYPE svg PUBLIC "-//W3C//DTD SVG 1.1//EN"
  "http://www.w3.org/Graphics/SVG/1.1/DTD/svg11.dtd">
<svg xmlns:xlink="http://www.w3.org/1999/xlink" width="566.220937pt" height="424.474375pt" viewBox="0 0 566.220937 424.474375" xmlns="http://www.w3.org/2000/svg" version="1.1">
 <metadata>
  <rdf:RDF xmlns:dc="http://purl.org/dc/elements/1.1/" xmlns:cc="http://creativecommons.org/ns#" xmlns:rdf="http://www.w3.org/1999/02/22-rdf-syntax-ns#">
   <cc:Work>
    <dc:type rdf:resource="http://purl.org/dc/dcmitype/StillImage"/>
    <dc:date>2023-12-29T12:56:35.976008</dc:date>
    <dc:format>image/svg+xml</dc:format>
    <dc:creator>
     <cc:Agent>
      <dc:title>Matplotlib v3.8.0, https://matplotlib.org/</dc:title>
     </cc:Agent>
    </dc:creator>
   </cc:Work>
  </rdf:RDF>
 </metadata>
 <defs>
  <style type="text/css">*{stroke-linejoin: round; stroke-linecap: butt}</style>
 </defs>
 <g id="figure_1">
  <g id="patch_1">
   <path d="M 0 424.474375 
L 566.220937 424.474375 
L 566.220937 0 
L 0 0 
z
" style="fill: #ffffff"/>
  </g>
  <g id="axes_1">
   <g id="patch_2">
    <path d="M 52.160938 386.918125 
L 559.020937 386.918125 
L 559.020937 22.318125 
L 52.160938 22.318125 
z
" style="fill: #ffffff"/>
   </g>
   <g id="matplotlib.axis_1">
    <g id="xtick_1">
     <g id="line2d_1">
      <defs>
       <path id="m8b8ce182e4" d="M 0 0 
L 0 3.5 
" style="stroke: #000000; stroke-width: 0.8"/>
      </defs>
      <g>
       <use xlink:href="#m8b8ce182e4" x="75.200028" y="386.918125" style="stroke: #000000; stroke-width: 0.8"/>
      </g>
     </g>
     <g id="text_1">
      <!-- 0 -->
      <g transform="translate(72.018778 401.516562) scale(0.1 -0.1)">
       <defs>
        <path id="DejaVuSans-30" d="M 2034 4250 
Q 1547 4250 1301 3770 
Q 1056 3291 1056 2328 
Q 1056 1369 1301 889 
Q 1547 409 2034 409 
Q 2525 409 2770 889 
Q 3016 1369 3016 2328 
Q 3016 3291 2770 3770 
Q 2525 4250 2034 4250 
z
M 2034 4750 
Q 2819 4750 3233 4129 
Q 3647 3509 3647 2328 
Q 3647 1150 3233 529 
Q 2819 -91 2034 -91 
Q 1250 -91 836 529 
Q 422 1150 422 2328 
Q 422 3509 836 4129 
Q 1250 4750 2034 4750 
z
" transform="scale(0.015625)"/>
       </defs>
       <use xlink:href="#DejaVuSans-30"/>
      </g>
     </g>
    </g>
    <g id="xtick_2">
     <g id="line2d_2">
      <g>
       <use xlink:href="#m8b8ce182e4" x="179.923169" y="386.918125" style="stroke: #000000; stroke-width: 0.8"/>
      </g>
     </g>
     <g id="text_2">
      <!-- 5 -->
      <g transform="translate(176.741919 401.516562) scale(0.1 -0.1)">
       <defs>
        <path id="DejaVuSans-35" d="M 691 4666 
L 3169 4666 
L 3169 4134 
L 1269 4134 
L 1269 2991 
Q 1406 3038 1543 3061 
Q 1681 3084 1819 3084 
Q 2600 3084 3056 2656 
Q 3513 2228 3513 1497 
Q 3513 744 3044 326 
Q 2575 -91 1722 -91 
Q 1428 -91 1123 -41 
Q 819 9 494 109 
L 494 744 
Q 775 591 1075 516 
Q 1375 441 1709 441 
Q 2250 441 2565 725 
Q 2881 1009 2881 1497 
Q 2881 1984 2565 2268 
Q 2250 2553 1709 2553 
Q 1456 2553 1204 2497 
Q 953 2441 691 2322 
L 691 4666 
z
" transform="scale(0.015625)"/>
       </defs>
       <use xlink:href="#DejaVuSans-35"/>
      </g>
     </g>
    </g>
    <g id="xtick_3">
     <g id="line2d_3">
      <g>
       <use xlink:href="#m8b8ce182e4" x="284.646309" y="386.918125" style="stroke: #000000; stroke-width: 0.8"/>
      </g>
     </g>
     <g id="text_3">
      <!-- 10 -->
      <g transform="translate(278.283809 401.516562) scale(0.1 -0.1)">
       <defs>
        <path id="DejaVuSans-31" d="M 794 531 
L 1825 531 
L 1825 4091 
L 703 3866 
L 703 4441 
L 1819 4666 
L 2450 4666 
L 2450 531 
L 3481 531 
L 3481 0 
L 794 0 
L 794 531 
z
" transform="scale(0.015625)"/>
       </defs>
       <use xlink:href="#DejaVuSans-31"/>
       <use xlink:href="#DejaVuSans-30" x="63.623047"/>
      </g>
     </g>
    </g>
    <g id="xtick_4">
     <g id="line2d_4">
      <g>
       <use xlink:href="#m8b8ce182e4" x="389.36945" y="386.918125" style="stroke: #000000; stroke-width: 0.8"/>
      </g>
     </g>
     <g id="text_4">
      <!-- 15 -->
      <g transform="translate(383.00695 401.516562) scale(0.1 -0.1)">
       <use xlink:href="#DejaVuSans-31"/>
       <use xlink:href="#DejaVuSans-35" x="63.623047"/>
      </g>
     </g>
    </g>
    <g id="xtick_5">
     <g id="line2d_5">
      <g>
       <use xlink:href="#m8b8ce182e4" x="494.09259" y="386.918125" style="stroke: #000000; stroke-width: 0.8"/>
      </g>
     </g>
     <g id="text_5">
      <!-- 20 -->
      <g transform="translate(487.73009 401.516562) scale(0.1 -0.1)">
       <defs>
        <path id="DejaVuSans-32" d="M 1228 531 
L 3431 531 
L 3431 0 
L 469 0 
L 469 531 
Q 828 903 1448 1529 
Q 2069 2156 2228 2338 
Q 2531 2678 2651 2914 
Q 2772 3150 2772 3378 
Q 2772 3750 2511 3984 
Q 2250 4219 1831 4219 
Q 1534 4219 1204 4116 
Q 875 4013 500 3803 
L 500 4441 
Q 881 4594 1212 4672 
Q 1544 4750 1819 4750 
Q 2544 4750 2975 4387 
Q 3406 4025 3406 3419 
Q 3406 3131 3298 2873 
Q 3191 2616 2906 2266 
Q 2828 2175 2409 1742 
Q 1991 1309 1228 531 
z
" transform="scale(0.015625)"/>
       </defs>
       <use xlink:href="#DejaVuSans-32"/>
       <use xlink:href="#DejaVuSans-30" x="63.623047"/>
      </g>
     </g>
    </g>
    <g id="text_6">
     <!-- Number of experiments -->
     <g transform="translate(246.183125 415.194687) scale(0.1 -0.1)">
      <defs>
       <path id="DejaVuSans-4e" d="M 628 4666 
L 1478 4666 
L 3547 763 
L 3547 4666 
L 4159 4666 
L 4159 0 
L 3309 0 
L 1241 3903 
L 1241 0 
L 628 0 
L 628 4666 
z
" transform="scale(0.015625)"/>
       <path id="DejaVuSans-75" d="M 544 1381 
L 544 3500 
L 1119 3500 
L 1119 1403 
Q 1119 906 1312 657 
Q 1506 409 1894 409 
Q 2359 409 2629 706 
Q 2900 1003 2900 1516 
L 2900 3500 
L 3475 3500 
L 3475 0 
L 2900 0 
L 2900 538 
Q 2691 219 2414 64 
Q 2138 -91 1772 -91 
Q 1169 -91 856 284 
Q 544 659 544 1381 
z
M 1991 3584 
L 1991 3584 
z
" transform="scale(0.015625)"/>
       <path id="DejaVuSans-6d" d="M 3328 2828 
Q 3544 3216 3844 3400 
Q 4144 3584 4550 3584 
Q 5097 3584 5394 3201 
Q 5691 2819 5691 2113 
L 5691 0 
L 5113 0 
L 5113 2094 
Q 5113 2597 4934 2840 
Q 4756 3084 4391 3084 
Q 3944 3084 3684 2787 
Q 3425 2491 3425 1978 
L 3425 0 
L 2847 0 
L 2847 2094 
Q 2847 2600 2669 2842 
Q 2491 3084 2119 3084 
Q 1678 3084 1418 2786 
Q 1159 2488 1159 1978 
L 1159 0 
L 581 0 
L 581 3500 
L 1159 3500 
L 1159 2956 
Q 1356 3278 1631 3431 
Q 1906 3584 2284 3584 
Q 2666 3584 2933 3390 
Q 3200 3197 3328 2828 
z
" transform="scale(0.015625)"/>
       <path id="DejaVuSans-62" d="M 3116 1747 
Q 3116 2381 2855 2742 
Q 2594 3103 2138 3103 
Q 1681 3103 1420 2742 
Q 1159 2381 1159 1747 
Q 1159 1113 1420 752 
Q 1681 391 2138 391 
Q 2594 391 2855 752 
Q 3116 1113 3116 1747 
z
M 1159 2969 
Q 1341 3281 1617 3432 
Q 1894 3584 2278 3584 
Q 2916 3584 3314 3078 
Q 3713 2572 3713 1747 
Q 3713 922 3314 415 
Q 2916 -91 2278 -91 
Q 1894 -91 1617 61 
Q 1341 213 1159 525 
L 1159 0 
L 581 0 
L 581 4863 
L 1159 4863 
L 1159 2969 
z
" transform="scale(0.015625)"/>
       <path id="DejaVuSans-65" d="M 3597 1894 
L 3597 1613 
L 953 1613 
Q 991 1019 1311 708 
Q 1631 397 2203 397 
Q 2534 397 2845 478 
Q 3156 559 3463 722 
L 3463 178 
Q 3153 47 2828 -22 
Q 2503 -91 2169 -91 
Q 1331 -91 842 396 
Q 353 884 353 1716 
Q 353 2575 817 3079 
Q 1281 3584 2069 3584 
Q 2775 3584 3186 3129 
Q 3597 2675 3597 1894 
z
M 3022 2063 
Q 3016 2534 2758 2815 
Q 2500 3097 2075 3097 
Q 1594 3097 1305 2825 
Q 1016 2553 972 2059 
L 3022 2063 
z
" transform="scale(0.015625)"/>
       <path id="DejaVuSans-72" d="M 2631 2963 
Q 2534 3019 2420 3045 
Q 2306 3072 2169 3072 
Q 1681 3072 1420 2755 
Q 1159 2438 1159 1844 
L 1159 0 
L 581 0 
L 581 3500 
L 1159 3500 
L 1159 2956 
Q 1341 3275 1631 3429 
Q 1922 3584 2338 3584 
Q 2397 3584 2469 3576 
Q 2541 3569 2628 3553 
L 2631 2963 
z
" transform="scale(0.015625)"/>
       <path id="DejaVuSans-20" transform="scale(0.015625)"/>
       <path id="DejaVuSans-6f" d="M 1959 3097 
Q 1497 3097 1228 2736 
Q 959 2375 959 1747 
Q 959 1119 1226 758 
Q 1494 397 1959 397 
Q 2419 397 2687 759 
Q 2956 1122 2956 1747 
Q 2956 2369 2687 2733 
Q 2419 3097 1959 3097 
z
M 1959 3584 
Q 2709 3584 3137 3096 
Q 3566 2609 3566 1747 
Q 3566 888 3137 398 
Q 2709 -91 1959 -91 
Q 1206 -91 779 398 
Q 353 888 353 1747 
Q 353 2609 779 3096 
Q 1206 3584 1959 3584 
z
" transform="scale(0.015625)"/>
       <path id="DejaVuSans-66" d="M 2375 4863 
L 2375 4384 
L 1825 4384 
Q 1516 4384 1395 4259 
Q 1275 4134 1275 3809 
L 1275 3500 
L 2222 3500 
L 2222 3053 
L 1275 3053 
L 1275 0 
L 697 0 
L 697 3053 
L 147 3053 
L 147 3500 
L 697 3500 
L 697 3744 
Q 697 4328 969 4595 
Q 1241 4863 1831 4863 
L 2375 4863 
z
" transform="scale(0.015625)"/>
       <path id="DejaVuSans-78" d="M 3513 3500 
L 2247 1797 
L 3578 0 
L 2900 0 
L 1881 1375 
L 863 0 
L 184 0 
L 1544 1831 
L 300 3500 
L 978 3500 
L 1906 2253 
L 2834 3500 
L 3513 3500 
z
" transform="scale(0.015625)"/>
       <path id="DejaVuSans-70" d="M 1159 525 
L 1159 -1331 
L 581 -1331 
L 581 3500 
L 1159 3500 
L 1159 2969 
Q 1341 3281 1617 3432 
Q 1894 3584 2278 3584 
Q 2916 3584 3314 3078 
Q 3713 2572 3713 1747 
Q 3713 922 3314 415 
Q 2916 -91 2278 -91 
Q 1894 -91 1617 61 
Q 1341 213 1159 525 
z
M 3116 1747 
Q 3116 2381 2855 2742 
Q 2594 3103 2138 3103 
Q 1681 3103 1420 2742 
Q 1159 2381 1159 1747 
Q 1159 1113 1420 752 
Q 1681 391 2138 391 
Q 2594 391 2855 752 
Q 3116 1113 3116 1747 
z
" transform="scale(0.015625)"/>
       <path id="DejaVuSans-69" d="M 603 3500 
L 1178 3500 
L 1178 0 
L 603 0 
L 603 3500 
z
M 603 4863 
L 1178 4863 
L 1178 4134 
L 603 4134 
L 603 4863 
z
" transform="scale(0.015625)"/>
       <path id="DejaVuSans-6e" d="M 3513 2113 
L 3513 0 
L 2938 0 
L 2938 2094 
Q 2938 2591 2744 2837 
Q 2550 3084 2163 3084 
Q 1697 3084 1428 2787 
Q 1159 2491 1159 1978 
L 1159 0 
L 581 0 
L 581 3500 
L 1159 3500 
L 1159 2956 
Q 1366 3272 1645 3428 
Q 1925 3584 2291 3584 
Q 2894 3584 3203 3211 
Q 3513 2838 3513 2113 
z
" transform="scale(0.015625)"/>
       <path id="DejaVuSans-74" d="M 1172 4494 
L 1172 3500 
L 2356 3500 
L 2356 3053 
L 1172 3053 
L 1172 1153 
Q 1172 725 1289 603 
Q 1406 481 1766 481 
L 2356 481 
L 2356 0 
L 1766 0 
Q 1100 0 847 248 
Q 594 497 594 1153 
L 594 3053 
L 172 3053 
L 172 3500 
L 594 3500 
L 594 4494 
L 1172 4494 
z
" transform="scale(0.015625)"/>
       <path id="DejaVuSans-73" d="M 2834 3397 
L 2834 2853 
Q 2591 2978 2328 3040 
Q 2066 3103 1784 3103 
Q 1356 3103 1142 2972 
Q 928 2841 928 2578 
Q 928 2378 1081 2264 
Q 1234 2150 1697 2047 
L 1894 2003 
Q 2506 1872 2764 1633 
Q 3022 1394 3022 966 
Q 3022 478 2636 193 
Q 2250 -91 1575 -91 
Q 1294 -91 989 -36 
Q 684 19 347 128 
L 347 722 
Q 666 556 975 473 
Q 1284 391 1588 391 
Q 1994 391 2212 530 
Q 2431 669 2431 922 
Q 2431 1156 2273 1281 
Q 2116 1406 1581 1522 
L 1381 1569 
Q 847 1681 609 1914 
Q 372 2147 372 2553 
Q 372 3047 722 3315 
Q 1072 3584 1716 3584 
Q 2034 3584 2315 3537 
Q 2597 3491 2834 3397 
z
" transform="scale(0.015625)"/>
      </defs>
      <use xlink:href="#DejaVuSans-4e"/>
      <use xlink:href="#DejaVuSans-75" x="74.804688"/>
      <use xlink:href="#DejaVuSans-6d" x="138.183594"/>
      <use xlink:href="#DejaVuSans-62" x="235.595703"/>
      <use xlink:href="#DejaVuSans-65" x="299.072266"/>
      <use xlink:href="#DejaVuSans-72" x="360.595703"/>
      <use xlink:href="#DejaVuSans-20" x="401.708984"/>
      <use xlink:href="#DejaVuSans-6f" x="433.496094"/>
      <use xlink:href="#DejaVuSans-66" x="494.677734"/>
      <use xlink:href="#DejaVuSans-20" x="529.882812"/>
      <use xlink:href="#DejaVuSans-65" x="561.669922"/>
      <use xlink:href="#DejaVuSans-78" x="621.443359"/>
      <use xlink:href="#DejaVuSans-70" x="680.623047"/>
      <use xlink:href="#DejaVuSans-65" x="744.099609"/>
      <use xlink:href="#DejaVuSans-72" x="805.623047"/>
      <use xlink:href="#DejaVuSans-69" x="846.736328"/>
      <use xlink:href="#DejaVuSans-6d" x="874.519531"/>
      <use xlink:href="#DejaVuSans-65" x="971.931641"/>
      <use xlink:href="#DejaVuSans-6e" x="1033.455078"/>
      <use xlink:href="#DejaVuSans-74" x="1096.833984"/>
      <use xlink:href="#DejaVuSans-73" x="1136.042969"/>
     </g>
    </g>
   </g>
   <g id="matplotlib.axis_2">
    <g id="ytick_1">
     <g id="line2d_6">
      <defs>
       <path id="m2421b67b56" d="M 0 0 
L -3.5 0 
" style="stroke: #000000; stroke-width: 0.8"/>
      </defs>
      <g>
       <use xlink:href="#m2421b67b56" x="52.160938" y="368.285448" style="stroke: #000000; stroke-width: 0.8"/>
      </g>
     </g>
     <g id="text_7">
      <!-- −1.5 -->
      <g transform="translate(20.878125 372.084667) scale(0.1 -0.1)">
       <defs>
        <path id="DejaVuSans-2212" d="M 678 2272 
L 4684 2272 
L 4684 1741 
L 678 1741 
L 678 2272 
z
" transform="scale(0.015625)"/>
        <path id="DejaVuSans-2e" d="M 684 794 
L 1344 794 
L 1344 0 
L 684 0 
L 684 794 
z
" transform="scale(0.015625)"/>
       </defs>
       <use xlink:href="#DejaVuSans-2212"/>
       <use xlink:href="#DejaVuSans-31" x="83.789062"/>
       <use xlink:href="#DejaVuSans-2e" x="147.412109"/>
       <use xlink:href="#DejaVuSans-35" x="179.199219"/>
      </g>
     </g>
    </g>
    <g id="ytick_2">
     <g id="line2d_7">
      <g>
       <use xlink:href="#m2421b67b56" x="52.160938" y="290.143499" style="stroke: #000000; stroke-width: 0.8"/>
      </g>
     </g>
     <g id="text_8">
      <!-- −1.0 -->
      <g transform="translate(20.878125 293.942718) scale(0.1 -0.1)">
       <use xlink:href="#DejaVuSans-2212"/>
       <use xlink:href="#DejaVuSans-31" x="83.789062"/>
       <use xlink:href="#DejaVuSans-2e" x="147.412109"/>
       <use xlink:href="#DejaVuSans-30" x="179.199219"/>
      </g>
     </g>
    </g>
    <g id="ytick_3">
     <g id="line2d_8">
      <g>
       <use xlink:href="#m2421b67b56" x="52.160938" y="212.00155" style="stroke: #000000; stroke-width: 0.8"/>
      </g>
     </g>
     <g id="text_9">
      <!-- −0.5 -->
      <g transform="translate(20.878125 215.800769) scale(0.1 -0.1)">
       <use xlink:href="#DejaVuSans-2212"/>
       <use xlink:href="#DejaVuSans-30" x="83.789062"/>
       <use xlink:href="#DejaVuSans-2e" x="147.412109"/>
       <use xlink:href="#DejaVuSans-35" x="179.199219"/>
      </g>
     </g>
    </g>
    <g id="ytick_4">
     <g id="line2d_9">
      <g>
       <use xlink:href="#m2421b67b56" x="52.160938" y="133.859601" style="stroke: #000000; stroke-width: 0.8"/>
      </g>
     </g>
     <g id="text_10">
      <!-- 0.0 -->
      <g transform="translate(29.257812 137.65882) scale(0.1 -0.1)">
       <use xlink:href="#DejaVuSans-30"/>
       <use xlink:href="#DejaVuSans-2e" x="63.623047"/>
       <use xlink:href="#DejaVuSans-30" x="95.410156"/>
      </g>
     </g>
    </g>
    <g id="ytick_5">
     <g id="line2d_10">
      <g>
       <use xlink:href="#m2421b67b56" x="52.160938" y="55.717653" style="stroke: #000000; stroke-width: 0.8"/>
      </g>
     </g>
     <g id="text_11">
      <!-- 0.5 -->
      <g transform="translate(29.257812 59.516871) scale(0.1 -0.1)">
       <use xlink:href="#DejaVuSans-30"/>
       <use xlink:href="#DejaVuSans-2e" x="63.623047"/>
       <use xlink:href="#DejaVuSans-35" x="95.410156"/>
      </g>
     </g>
    </g>
    <g id="text_12">
     <!-- Log10 $-r_{x}$  -->
     <g transform="translate(14.778125 231.668125) rotate(-90) scale(0.1 -0.1)">
      <defs>
       <path id="DejaVuSans-4c" d="M 628 4666 
L 1259 4666 
L 1259 531 
L 3531 531 
L 3531 0 
L 628 0 
L 628 4666 
z
" transform="scale(0.015625)"/>
       <path id="DejaVuSans-67" d="M 2906 1791 
Q 2906 2416 2648 2759 
Q 2391 3103 1925 3103 
Q 1463 3103 1205 2759 
Q 947 2416 947 1791 
Q 947 1169 1205 825 
Q 1463 481 1925 481 
Q 2391 481 2648 825 
Q 2906 1169 2906 1791 
z
M 3481 434 
Q 3481 -459 3084 -895 
Q 2688 -1331 1869 -1331 
Q 1566 -1331 1297 -1286 
Q 1028 -1241 775 -1147 
L 775 -588 
Q 1028 -725 1275 -790 
Q 1522 -856 1778 -856 
Q 2344 -856 2625 -561 
Q 2906 -266 2906 331 
L 2906 616 
Q 2728 306 2450 153 
Q 2172 0 1784 0 
Q 1141 0 747 490 
Q 353 981 353 1791 
Q 353 2603 747 3093 
Q 1141 3584 1784 3584 
Q 2172 3584 2450 3431 
Q 2728 3278 2906 2969 
L 2906 3500 
L 3481 3500 
L 3481 434 
z
" transform="scale(0.015625)"/>
       <path id="DejaVuSans-Oblique-72" d="M 2853 2969 
Q 2766 3016 2653 3041 
Q 2541 3066 2413 3066 
Q 1953 3066 1609 2717 
Q 1266 2369 1153 1784 
L 800 0 
L 225 0 
L 909 3500 
L 1484 3500 
L 1375 2956 
Q 1603 3259 1920 3421 
Q 2238 3584 2597 3584 
Q 2691 3584 2781 3573 
Q 2872 3563 2963 3538 
L 2853 2969 
z
" transform="scale(0.015625)"/>
       <path id="DejaVuSans-Oblique-78" d="M 3841 3500 
L 2234 1784 
L 3219 0 
L 2559 0 
L 1819 1388 
L 531 0 
L -166 0 
L 1556 1844 
L 641 3500 
L 1300 3500 
L 1972 2234 
L 3144 3500 
L 3841 3500 
z
" transform="scale(0.015625)"/>
      </defs>
      <use xlink:href="#DejaVuSans-4c" transform="translate(0 0.78125)"/>
      <use xlink:href="#DejaVuSans-6f" transform="translate(55.712891 0.78125)"/>
      <use xlink:href="#DejaVuSans-67" transform="translate(116.894531 0.78125)"/>
      <use xlink:href="#DejaVuSans-31" transform="translate(180.371094 0.78125)"/>
      <use xlink:href="#DejaVuSans-30" transform="translate(243.994141 0.78125)"/>
      <use xlink:href="#DejaVuSans-20" transform="translate(307.617188 0.78125)"/>
      <use xlink:href="#DejaVuSans-2212" transform="translate(339.404297 0.78125)"/>
      <use xlink:href="#DejaVuSans-Oblique-72" transform="translate(423.193359 0.78125)"/>
      <use xlink:href="#DejaVuSans-Oblique-78" transform="translate(464.306641 -15.625) scale(0.7)"/>
      <use xlink:href="#DejaVuSans-20" transform="translate(508.466797 0.78125)"/>
     </g>
    </g>
   </g>
   <g id="LineCollection_1">
    <path d="M 96.144657 39.493064 
L 96.144657 39.493064 
" clip-path="url(#p65f1f97a3f)" style="fill: none; stroke: #1f77b4"/>
    <path d="M 117.089285 39.129042 
L 117.089285 39.129042 
" clip-path="url(#p65f1f97a3f)" style="fill: none; stroke: #1f77b4"/>
    <path d="M 138.033913 40.835029 
L 138.033913 40.835029 
" clip-path="url(#p65f1f97a3f)" style="fill: none; stroke: #1f77b4"/>
    <path d="M 158.978541 39.669133 
L 158.978541 39.669133 
" clip-path="url(#p65f1f97a3f)" style="fill: none; stroke: #1f77b4"/>
    <path d="M 179.923169 39.02895 
L 179.923169 39.02895 
" clip-path="url(#p65f1f97a3f)" style="fill: none; stroke: #1f77b4"/>
    <path d="M 200.867797 39.492676 
L 200.867797 39.492676 
" clip-path="url(#p65f1f97a3f)" style="fill: none; stroke: #1f77b4"/>
    <path d="M 221.812425 38.890852 
L 221.812425 38.890852 
" clip-path="url(#p65f1f97a3f)" style="fill: none; stroke: #1f77b4"/>
    <path d="M 242.757053 39.956097 
L 242.757053 39.956097 
" clip-path="url(#p65f1f97a3f)" style="fill: none; stroke: #1f77b4"/>
    <path d="M 263.701681 39.214872 
L 263.701681 39.214872 
" clip-path="url(#p65f1f97a3f)" style="fill: none; stroke: #1f77b4"/>
    <path d="M 284.646309 39.317799 
L 284.646309 39.317799 
" clip-path="url(#p65f1f97a3f)" style="fill: none; stroke: #1f77b4"/>
    <path d="M 305.590937 39.522478 
L 305.590937 39.522478 
" clip-path="url(#p65f1f97a3f)" style="fill: none; stroke: #1f77b4"/>
    <path d="M 326.535566 39.493555 
L 326.535566 39.493555 
" clip-path="url(#p65f1f97a3f)" style="fill: none; stroke: #1f77b4"/>
    <path d="M 347.480194 40.315691 
L 347.480194 40.315691 
" clip-path="url(#p65f1f97a3f)" style="fill: none; stroke: #1f77b4"/>
    <path d="M 368.424822 42.609891 
L 368.424822 42.609891 
" clip-path="url(#p65f1f97a3f)" style="fill: none; stroke: #1f77b4"/>
    <path d="M 389.36945 71.223858 
L 389.36945 71.223858 
" clip-path="url(#p65f1f97a3f)" style="fill: none; stroke: #1f77b4"/>
    <path d="M 410.314078 82.00925 
L 410.314078 82.00925 
" clip-path="url(#p65f1f97a3f)" style="fill: none; stroke: #1f77b4"/>
    <path d="M 431.258706 82.839941 
L 431.258706 82.839941 
" clip-path="url(#p65f1f97a3f)" style="fill: none; stroke: #1f77b4"/>
    <path d="M 452.203334 175.933692 
L 452.203334 175.933692 
" clip-path="url(#p65f1f97a3f)" style="fill: none; stroke: #1f77b4"/>
    <path d="M 473.147962 115.249064 
L 473.147962 115.249064 
" clip-path="url(#p65f1f97a3f)" style="fill: none; stroke: #1f77b4"/>
    <path d="M 494.09259 255.767685 
L 494.09259 255.767685 
" clip-path="url(#p65f1f97a3f)" style="fill: none; stroke: #1f77b4"/>
    <path d="M 515.037218 100.366608 
L 515.037218 100.366608 
" clip-path="url(#p65f1f97a3f)" style="fill: none; stroke: #1f77b4"/>
    <path d="M 535.981847 352.633305 
L 535.981847 352.633305 
" clip-path="url(#p65f1f97a3f)" style="fill: none; stroke: #1f77b4"/>
   </g>
   <g id="LineCollection_2">
    <path d="M 96.144657 39.493064 
L 96.144657 39.493064 
" clip-path="url(#p65f1f97a3f)" style="fill: none; stroke: #ff7f0e"/>
    <path d="M 117.089285 41.39366 
L 117.089285 41.393628 
" clip-path="url(#p65f1f97a3f)" style="fill: none; stroke: #ff7f0e"/>
    <path d="M 138.033913 43.315753 
L 138.033913 43.315697 
" clip-path="url(#p65f1f97a3f)" style="fill: none; stroke: #ff7f0e"/>
    <path d="M 158.978541 46.158238 
L 158.978541 46.158107 
" clip-path="url(#p65f1f97a3f)" style="fill: none; stroke: #ff7f0e"/>
    <path d="M 179.923169 51.316435 
L 179.923169 51.316096 
" clip-path="url(#p65f1f97a3f)" style="fill: none; stroke: #ff7f0e"/>
    <path d="M 200.867797 60.678617 
L 200.867797 60.677445 
" clip-path="url(#p65f1f97a3f)" style="fill: none; stroke: #ff7f0e"/>
    <path d="M 221.812425 79.629441 
L 221.812425 79.626474 
" clip-path="url(#p65f1f97a3f)" style="fill: none; stroke: #ff7f0e"/>
    <path d="M 242.757053 128.526031 
L 242.757053 128.508229 
" clip-path="url(#p65f1f97a3f)" style="fill: none; stroke: #ff7f0e"/>
    <path d="M 263.701681 145.644435 
L 263.701681 145.622864 
" clip-path="url(#p65f1f97a3f)" style="fill: none; stroke: #ff7f0e"/>
    <path d="M 284.646309 165.287282 
L 284.646309 165.169728 
" clip-path="url(#p65f1f97a3f)" style="fill: none; stroke: #ff7f0e"/>
    <path d="M 305.590937 186.181729 
L 305.590937 186.096432 
" clip-path="url(#p65f1f97a3f)" style="fill: none; stroke: #ff7f0e"/>
    <path d="M 326.535566 193.691909 
L 326.535566 193.602563 
" clip-path="url(#p65f1f97a3f)" style="fill: none; stroke: #ff7f0e"/>
    <path d="M 347.480194 223.828641 
L 347.480194 223.711199 
" clip-path="url(#p65f1f97a3f)" style="fill: none; stroke: #ff7f0e"/>
    <path d="M 368.424822 248.661158 
L 368.424822 248.405647 
" clip-path="url(#p65f1f97a3f)" style="fill: none; stroke: #ff7f0e"/>
    <path d="M 389.36945 345.051776 
L 389.36945 340.444968 
" clip-path="url(#p65f1f97a3f)" style="fill: none; stroke: #ff7f0e"/>
   </g>
   <g id="LineCollection_3">
    <path d="M 96.144657 39.493064 
L 96.144657 39.493064 
" clip-path="url(#p65f1f97a3f)" style="fill: none; stroke: #2ca02c"/>
    <path d="M 117.089285 42.265252 
L 117.089285 42.133355 
" clip-path="url(#p65f1f97a3f)" style="fill: none; stroke: #2ca02c"/>
    <path d="M 138.033913 44.971451 
L 138.033913 44.749744 
" clip-path="url(#p65f1f97a3f)" style="fill: none; stroke: #2ca02c"/>
    <path d="M 158.978541 50.206973 
L 158.978541 49.343509 
" clip-path="url(#p65f1f97a3f)" style="fill: none; stroke: #2ca02c"/>
    <path d="M 179.923169 61.382829 
L 179.923169 59.254769 
" clip-path="url(#p65f1f97a3f)" style="fill: none; stroke: #2ca02c"/>
    <path d="M 200.867797 85.645396 
L 200.867797 79.257357 
" clip-path="url(#p65f1f97a3f)" style="fill: none; stroke: #2ca02c"/>
    <path d="M 221.812425 156.946364 
L 221.812425 116.982997 
" clip-path="url(#p65f1f97a3f)" style="fill: none; stroke: #2ca02c"/>
    <path d="M 242.757053 214.701318 
L 242.757053 149.789857 
" clip-path="url(#p65f1f97a3f)" style="fill: none; stroke: #2ca02c"/>
    <path d="M 263.701681 207.563868 
L 263.701681 165.876771 
" clip-path="url(#p65f1f97a3f)" style="fill: none; stroke: #2ca02c"/>
    <path d="M 284.646309 231.470248 
L 284.646309 201.871743 
" clip-path="url(#p65f1f97a3f)" style="fill: none; stroke: #2ca02c"/>
    <path d="M 305.590937 232.769787 
L 305.590937 204.389717 
" clip-path="url(#p65f1f97a3f)" style="fill: none; stroke: #2ca02c"/>
    <path d="M 326.535566 243.345321 
L 326.535566 200.504977 
" clip-path="url(#p65f1f97a3f)" style="fill: none; stroke: #2ca02c"/>
    <path d="M 347.480194 268.128446 
L 347.480194 209.576097 
" clip-path="url(#p65f1f97a3f)" style="fill: none; stroke: #2ca02c"/>
    <path d="M 368.424822 311.021062 
L 368.424822 213.808332 
" clip-path="url(#p65f1f97a3f)" style="fill: none; stroke: #2ca02c"/>
    <path d="M 389.36945 332.686084 
L 389.36945 235.345911 
" clip-path="url(#p65f1f97a3f)" style="fill: none; stroke: #2ca02c"/>
    <path d="M 410.314078 300.238645 
L 410.314078 229.890013 
" clip-path="url(#p65f1f97a3f)" style="fill: none; stroke: #2ca02c"/>
    <path d="M 431.258706 316.026986 
L 431.258706 199.852317 
" clip-path="url(#p65f1f97a3f)" style="fill: none; stroke: #2ca02c"/>
    <path d="M 452.203334 333.536446 
L 452.203334 223.976156 
" clip-path="url(#p65f1f97a3f)" style="fill: none; stroke: #2ca02c"/>
    <path d="M 473.147962 355.581341 
L 473.147962 261.852875 
" clip-path="url(#p65f1f97a3f)" style="fill: none; stroke: #2ca02c"/>
   </g>
   <g id="LineCollection_4">
    <path d="M 96.144657 39.493064 
L 96.144657 39.493064 
" clip-path="url(#p65f1f97a3f)" style="fill: none; stroke: #d62728"/>
    <path d="M 117.089285 42.367356 
L 117.089285 42.237756 
" clip-path="url(#p65f1f97a3f)" style="fill: none; stroke: #d62728"/>
    <path d="M 138.033913 45.318092 
L 138.033913 45.05919 
" clip-path="url(#p65f1f97a3f)" style="fill: none; stroke: #d62728"/>
    <path d="M 158.978541 51.890252 
L 158.978541 51.03141 
" clip-path="url(#p65f1f97a3f)" style="fill: none; stroke: #d62728"/>
    <path d="M 179.923169 67.234539 
L 179.923169 64.95156 
" clip-path="url(#p65f1f97a3f)" style="fill: none; stroke: #d62728"/>
    <path d="M 200.867797 110.450277 
L 200.867797 101.501647 
" clip-path="url(#p65f1f97a3f)" style="fill: none; stroke: #d62728"/>
    <path d="M 221.812425 217.803036 
L 221.812425 163.382648 
" clip-path="url(#p65f1f97a3f)" style="fill: none; stroke: #d62728"/>
    <path d="M 242.757053 147.837651 
L 242.757053 141.719592 
" clip-path="url(#p65f1f97a3f)" style="fill: none; stroke: #d62728"/>
    <path d="M 263.701681 201.27012 
L 263.701681 177.836654 
" clip-path="url(#p65f1f97a3f)" style="fill: none; stroke: #d62728"/>
    <path d="M 284.646309 213.612634 
L 284.646309 189.066388 
" clip-path="url(#p65f1f97a3f)" style="fill: none; stroke: #d62728"/>
    <path d="M 305.590937 215.572011 
L 305.590937 195.980786 
" clip-path="url(#p65f1f97a3f)" style="fill: none; stroke: #d62728"/>
    <path d="M 326.535566 256.533766 
L 326.535566 193.157233 
" clip-path="url(#p65f1f97a3f)" style="fill: none; stroke: #d62728"/>
    <path d="M 347.480194 267.626037 
L 347.480194 204.723707 
" clip-path="url(#p65f1f97a3f)" style="fill: none; stroke: #d62728"/>
    <path d="M 368.424822 286.666695 
L 368.424822 204.662084 
" clip-path="url(#p65f1f97a3f)" style="fill: none; stroke: #d62728"/>
    <path d="M 389.36945 330.458141 
L 389.36945 225.32826 
" clip-path="url(#p65f1f97a3f)" style="fill: none; stroke: #d62728"/>
    <path d="M 410.314078 316.805075 
L 410.314078 252.214167 
" clip-path="url(#p65f1f97a3f)" style="fill: none; stroke: #d62728"/>
    <path d="M 431.258706 323.243607 
L 431.258706 215.267799 
" clip-path="url(#p65f1f97a3f)" style="fill: none; stroke: #d62728"/>
    <path d="M 452.203334 340.234391 
L 452.203334 224.787414 
" clip-path="url(#p65f1f97a3f)" style="fill: none; stroke: #d62728"/>
    <path d="M 473.147962 370.345398 
L 473.147962 259.40527 
" clip-path="url(#p65f1f97a3f)" style="fill: none; stroke: #d62728"/>
   </g>
   <g id="LineCollection_5">
    <path d="M 96.144657 39.493064 
L 96.144657 39.493064 
" clip-path="url(#p65f1f97a3f)" style="fill: none; stroke: #9467bd"/>
    <path d="M 117.089285 54.721097 
L 117.089285 54.720904 
" clip-path="url(#p65f1f97a3f)" style="fill: none; stroke: #9467bd"/>
    <path d="M 138.033913 140.580458 
L 138.033913 140.579236 
" clip-path="url(#p65f1f97a3f)" style="fill: none; stroke: #9467bd"/>
    <path d="M 158.978541 82.848719 
L 158.978541 82.848719 
" clip-path="url(#p65f1f97a3f)" style="fill: none; stroke: #9467bd"/>
    <path d="M 179.923169 248.504722 
L 179.923169 248.504722 
" clip-path="url(#p65f1f97a3f)" style="fill: none; stroke: #9467bd"/>
    <path d="M 200.867797 286.530501 
L 200.867797 286.530501 
" clip-path="url(#p65f1f97a3f)" style="fill: none; stroke: #9467bd"/>
    <path d="M 221.812425 308.140754 
L 221.812425 308.140754 
" clip-path="url(#p65f1f97a3f)" style="fill: none; stroke: #9467bd"/>
   </g>
   <g id="LineCollection_6">
    <path d="M 96.144657 39.493064 
L 96.144657 39.493064 
" clip-path="url(#p65f1f97a3f)" style="fill: none; stroke: #8c564b"/>
    <path d="M 117.089285 42.50344 
L 117.089285 42.503395 
" clip-path="url(#p65f1f97a3f)" style="fill: none; stroke: #8c564b"/>
    <path d="M 138.033913 49.369488 
L 138.033913 49.369298 
" clip-path="url(#p65f1f97a3f)" style="fill: none; stroke: #8c564b"/>
    <path d="M 158.978541 80.280824 
L 158.978541 80.279754 
" clip-path="url(#p65f1f97a3f)" style="fill: none; stroke: #8c564b"/>
    <path d="M 179.923169 144.650819 
L 179.923169 144.645608 
" clip-path="url(#p65f1f97a3f)" style="fill: none; stroke: #8c564b"/>
    <path d="M 200.867797 91.463885 
L 200.867797 91.454854 
" clip-path="url(#p65f1f97a3f)" style="fill: none; stroke: #8c564b"/>
    <path d="M 221.812425 127.204141 
L 221.812425 127.182849 
" clip-path="url(#p65f1f97a3f)" style="fill: none; stroke: #8c564b"/>
    <path d="M 242.757053 143.456895 
L 242.757053 143.446632 
" clip-path="url(#p65f1f97a3f)" style="fill: none; stroke: #8c564b"/>
    <path d="M 263.701681 145.303868 
L 263.701681 145.241835 
" clip-path="url(#p65f1f97a3f)" style="fill: none; stroke: #8c564b"/>
    <path d="M 284.646309 183.159108 
L 284.646309 182.888836 
" clip-path="url(#p65f1f97a3f)" style="fill: none; stroke: #8c564b"/>
    <path d="M 305.590937 299.50162 
L 305.590937 296.745357 
" clip-path="url(#p65f1f97a3f)" style="fill: none; stroke: #8c564b"/>
    <path d="M 326.535566 142.534967 
L 326.535566 141.815494 
" clip-path="url(#p65f1f97a3f)" style="fill: none; stroke: #8c564b"/>
    <path d="M 347.480194 142.486585 
L 347.480194 142.211507 
" clip-path="url(#p65f1f97a3f)" style="fill: none; stroke: #8c564b"/>
    <path d="M 368.424822 180.450512 
L 368.424822 180.144764 
" clip-path="url(#p65f1f97a3f)" style="fill: none; stroke: #8c564b"/>
    <path d="M 389.36945 172.038926 
L 389.36945 171.685802 
" clip-path="url(#p65f1f97a3f)" style="fill: none; stroke: #8c564b"/>
    <path d="M 410.314078 336.920025 
L 410.314078 324.381643 
" clip-path="url(#p65f1f97a3f)" style="fill: none; stroke: #8c564b"/>
   </g>
   <g id="line2d_11">
    <path d="M 75.200028 306.383696 
L 535.981847 306.383696 
" clip-path="url(#p65f1f97a3f)" style="fill: none; stroke-dasharray: 6.4,1.6,1,1.6; stroke-dashoffset: 0; stroke: #000000"/>
   </g>
   <g id="line2d_12">
    <path d="M 96.144657 39.493064 
L 117.089285 39.129042 
L 138.033913 40.835029 
L 158.978541 39.669133 
L 179.923169 39.02895 
L 200.867797 39.492676 
L 221.812425 38.890852 
L 242.757053 39.956097 
L 263.701681 39.214872 
L 284.646309 39.317799 
L 305.590937 39.522478 
L 326.535566 39.493555 
L 347.480194 40.315691 
L 368.424822 42.609891 
L 389.36945 71.223858 
L 410.314078 82.00925 
L 431.258706 82.839941 
L 452.203334 175.933692 
L 473.147962 115.249064 
L 494.09259 255.767685 
L 515.037218 100.366608 
L 535.981847 352.633305 
" clip-path="url(#p65f1f97a3f)" style="fill: none; stroke: #1f77b4; stroke-linecap: square"/>
    <defs>
     <path id="mdaa04f534e" d="M 0 3 
C 0.795609 3 1.55874 2.683901 2.12132 2.12132 
C 2.683901 1.55874 3 0.795609 3 0 
C 3 -0.795609 2.683901 -1.55874 2.12132 -2.12132 
C 1.55874 -2.683901 0.795609 -3 0 -3 
C -0.795609 -3 -1.55874 -2.683901 -2.12132 -2.12132 
C -2.683901 -1.55874 -3 -0.795609 -3 0 
C -3 0.795609 -2.683901 1.55874 -2.12132 2.12132 
C -1.55874 2.683901 -0.795609 3 0 3 
z
" style="stroke: #1f77b4"/>
    </defs>
    <g clip-path="url(#p65f1f97a3f)">
     <use xlink:href="#mdaa04f534e" x="96.144657" y="39.493064" style="fill: #1f77b4; stroke: #1f77b4"/>
     <use xlink:href="#mdaa04f534e" x="117.089285" y="39.129042" style="fill: #1f77b4; stroke: #1f77b4"/>
     <use xlink:href="#mdaa04f534e" x="138.033913" y="40.835029" style="fill: #1f77b4; stroke: #1f77b4"/>
     <use xlink:href="#mdaa04f534e" x="158.978541" y="39.669133" style="fill: #1f77b4; stroke: #1f77b4"/>
     <use xlink:href="#mdaa04f534e" x="179.923169" y="39.02895" style="fill: #1f77b4; stroke: #1f77b4"/>
     <use xlink:href="#mdaa04f534e" x="200.867797" y="39.492676" style="fill: #1f77b4; stroke: #1f77b4"/>
     <use xlink:href="#mdaa04f534e" x="221.812425" y="38.890852" style="fill: #1f77b4; stroke: #1f77b4"/>
     <use xlink:href="#mdaa04f534e" x="242.757053" y="39.956097" style="fill: #1f77b4; stroke: #1f77b4"/>
     <use xlink:href="#mdaa04f534e" x="263.701681" y="39.214872" style="fill: #1f77b4; stroke: #1f77b4"/>
     <use xlink:href="#mdaa04f534e" x="284.646309" y="39.317799" style="fill: #1f77b4; stroke: #1f77b4"/>
     <use xlink:href="#mdaa04f534e" x="305.590937" y="39.522478" style="fill: #1f77b4; stroke: #1f77b4"/>
     <use xlink:href="#mdaa04f534e" x="326.535566" y="39.493555" style="fill: #1f77b4; stroke: #1f77b4"/>
     <use xlink:href="#mdaa04f534e" x="347.480194" y="40.315691" style="fill: #1f77b4; stroke: #1f77b4"/>
     <use xlink:href="#mdaa04f534e" x="368.424822" y="42.609891" style="fill: #1f77b4; stroke: #1f77b4"/>
     <use xlink:href="#mdaa04f534e" x="389.36945" y="71.223858" style="fill: #1f77b4; stroke: #1f77b4"/>
     <use xlink:href="#mdaa04f534e" x="410.314078" y="82.00925" style="fill: #1f77b4; stroke: #1f77b4"/>
     <use xlink:href="#mdaa04f534e" x="431.258706" y="82.839941" style="fill: #1f77b4; stroke: #1f77b4"/>
     <use xlink:href="#mdaa04f534e" x="452.203334" y="175.933692" style="fill: #1f77b4; stroke: #1f77b4"/>
     <use xlink:href="#mdaa04f534e" x="473.147962" y="115.249064" style="fill: #1f77b4; stroke: #1f77b4"/>
     <use xlink:href="#mdaa04f534e" x="494.09259" y="255.767685" style="fill: #1f77b4; stroke: #1f77b4"/>
     <use xlink:href="#mdaa04f534e" x="515.037218" y="100.366608" style="fill: #1f77b4; stroke: #1f77b4"/>
     <use xlink:href="#mdaa04f534e" x="535.981847" y="352.633305" style="fill: #1f77b4; stroke: #1f77b4"/>
    </g>
   </g>
   <g id="line2d_13">
    <path d="M 96.144657 39.493064 
L 117.089285 41.393644 
L 138.033913 43.315725 
L 158.978541 46.158172 
L 179.923169 51.316266 
L 200.867797 60.678031 
L 221.812425 79.627957 
L 242.757053 128.51713 
L 263.701681 145.633649 
L 284.646309 165.228505 
L 305.590937 186.139081 
L 326.535566 193.647236 
L 347.480194 223.76992 
L 368.424822 248.533402 
L 389.36945 342.748372 
" clip-path="url(#p65f1f97a3f)" style="fill: none; stroke: #ff7f0e; stroke-linecap: square"/>
    <defs>
     <path id="m0d9dbb03aa" d="M 0 3 
C 0.795609 3 1.55874 2.683901 2.12132 2.12132 
C 2.683901 1.55874 3 0.795609 3 0 
C 3 -0.795609 2.683901 -1.55874 2.12132 -2.12132 
C 1.55874 -2.683901 0.795609 -3 0 -3 
C -0.795609 -3 -1.55874 -2.683901 -2.12132 -2.12132 
C -2.683901 -1.55874 -3 -0.795609 -3 0 
C -3 0.795609 -2.683901 1.55874 -2.12132 2.12132 
C -1.55874 2.683901 -0.795609 3 0 3 
z
" style="stroke: #ff7f0e"/>
    </defs>
    <g clip-path="url(#p65f1f97a3f)">
     <use xlink:href="#m0d9dbb03aa" x="96.144657" y="39.493064" style="fill: #ff7f0e; stroke: #ff7f0e"/>
     <use xlink:href="#m0d9dbb03aa" x="117.089285" y="41.393644" style="fill: #ff7f0e; stroke: #ff7f0e"/>
     <use xlink:href="#m0d9dbb03aa" x="138.033913" y="43.315725" style="fill: #ff7f0e; stroke: #ff7f0e"/>
     <use xlink:href="#m0d9dbb03aa" x="158.978541" y="46.158172" style="fill: #ff7f0e; stroke: #ff7f0e"/>
     <use xlink:href="#m0d9dbb03aa" x="179.923169" y="51.316266" style="fill: #ff7f0e; stroke: #ff7f0e"/>
     <use xlink:href="#m0d9dbb03aa" x="200.867797" y="60.678031" style="fill: #ff7f0e; stroke: #ff7f0e"/>
     <use xlink:href="#m0d9dbb03aa" x="221.812425" y="79.627957" style="fill: #ff7f0e; stroke: #ff7f0e"/>
     <use xlink:href="#m0d9dbb03aa" x="242.757053" y="128.51713" style="fill: #ff7f0e; stroke: #ff7f0e"/>
     <use xlink:href="#m0d9dbb03aa" x="263.701681" y="145.633649" style="fill: #ff7f0e; stroke: #ff7f0e"/>
     <use xlink:href="#m0d9dbb03aa" x="284.646309" y="165.228505" style="fill: #ff7f0e; stroke: #ff7f0e"/>
     <use xlink:href="#m0d9dbb03aa" x="305.590937" y="186.139081" style="fill: #ff7f0e; stroke: #ff7f0e"/>
     <use xlink:href="#m0d9dbb03aa" x="326.535566" y="193.647236" style="fill: #ff7f0e; stroke: #ff7f0e"/>
     <use xlink:href="#m0d9dbb03aa" x="347.480194" y="223.76992" style="fill: #ff7f0e; stroke: #ff7f0e"/>
     <use xlink:href="#m0d9dbb03aa" x="368.424822" y="248.533402" style="fill: #ff7f0e; stroke: #ff7f0e"/>
     <use xlink:href="#m0d9dbb03aa" x="389.36945" y="342.748372" style="fill: #ff7f0e; stroke: #ff7f0e"/>
    </g>
   </g>
   <g id="line2d_14">
    <path d="M 96.144657 39.493064 
L 117.089285 42.199304 
L 138.033913 44.860598 
L 158.978541 49.775241 
L 179.923169 60.318799 
L 200.867797 82.451376 
L 221.812425 136.964681 
L 242.757053 182.245588 
L 263.701681 186.720319 
L 284.646309 216.670996 
L 305.590937 218.579752 
L 326.535566 221.925149 
L 347.480194 238.852271 
L 368.424822 262.414697 
L 389.36945 284.015998 
L 410.314078 265.064329 
L 431.258706 257.939651 
L 452.203334 278.756301 
L 473.147962 308.717108 
" clip-path="url(#p65f1f97a3f)" style="fill: none; stroke: #2ca02c; stroke-linecap: square"/>
    <defs>
     <path id="m38eb4187af" d="M 0 3 
C 0.795609 3 1.55874 2.683901 2.12132 2.12132 
C 2.683901 1.55874 3 0.795609 3 0 
C 3 -0.795609 2.683901 -1.55874 2.12132 -2.12132 
C 1.55874 -2.683901 0.795609 -3 0 -3 
C -0.795609 -3 -1.55874 -2.683901 -2.12132 -2.12132 
C -2.683901 -1.55874 -3 -0.795609 -3 0 
C -3 0.795609 -2.683901 1.55874 -2.12132 2.12132 
C -1.55874 2.683901 -0.795609 3 0 3 
z
" style="stroke: #2ca02c"/>
    </defs>
    <g clip-path="url(#p65f1f97a3f)">
     <use xlink:href="#m38eb4187af" x="96.144657" y="39.493064" style="fill: #2ca02c; stroke: #2ca02c"/>
     <use xlink:href="#m38eb4187af" x="117.089285" y="42.199304" style="fill: #2ca02c; stroke: #2ca02c"/>
     <use xlink:href="#m38eb4187af" x="138.033913" y="44.860598" style="fill: #2ca02c; stroke: #2ca02c"/>
     <use xlink:href="#m38eb4187af" x="158.978541" y="49.775241" style="fill: #2ca02c; stroke: #2ca02c"/>
     <use xlink:href="#m38eb4187af" x="179.923169" y="60.318799" style="fill: #2ca02c; stroke: #2ca02c"/>
     <use xlink:href="#m38eb4187af" x="200.867797" y="82.451376" style="fill: #2ca02c; stroke: #2ca02c"/>
     <use xlink:href="#m38eb4187af" x="221.812425" y="136.964681" style="fill: #2ca02c; stroke: #2ca02c"/>
     <use xlink:href="#m38eb4187af" x="242.757053" y="182.245588" style="fill: #2ca02c; stroke: #2ca02c"/>
     <use xlink:href="#m38eb4187af" x="263.701681" y="186.720319" style="fill: #2ca02c; stroke: #2ca02c"/>
     <use xlink:href="#m38eb4187af" x="284.646309" y="216.670996" style="fill: #2ca02c; stroke: #2ca02c"/>
     <use xlink:href="#m38eb4187af" x="305.590937" y="218.579752" style="fill: #2ca02c; stroke: #2ca02c"/>
     <use xlink:href="#m38eb4187af" x="326.535566" y="221.925149" style="fill: #2ca02c; stroke: #2ca02c"/>
     <use xlink:href="#m38eb4187af" x="347.480194" y="238.852271" style="fill: #2ca02c; stroke: #2ca02c"/>
     <use xlink:href="#m38eb4187af" x="368.424822" y="262.414697" style="fill: #2ca02c; stroke: #2ca02c"/>
     <use xlink:href="#m38eb4187af" x="389.36945" y="284.015998" style="fill: #2ca02c; stroke: #2ca02c"/>
     <use xlink:href="#m38eb4187af" x="410.314078" y="265.064329" style="fill: #2ca02c; stroke: #2ca02c"/>
     <use xlink:href="#m38eb4187af" x="431.258706" y="257.939651" style="fill: #2ca02c; stroke: #2ca02c"/>
     <use xlink:href="#m38eb4187af" x="452.203334" y="278.756301" style="fill: #2ca02c; stroke: #2ca02c"/>
     <use xlink:href="#m38eb4187af" x="473.147962" y="308.717108" style="fill: #2ca02c; stroke: #2ca02c"/>
    </g>
   </g>
   <g id="line2d_15">
    <path d="M 96.144657 39.493064 
L 117.089285 42.302556 
L 138.033913 45.188641 
L 158.978541 51.460831 
L 179.923169 66.093049 
L 200.867797 105.975962 
L 221.812425 190.592842 
L 242.757053 144.778621 
L 263.701681 189.553387 
L 284.646309 201.339511 
L 305.590937 205.776398 
L 326.535566 224.8455 
L 347.480194 236.174872 
L 368.424822 245.664389 
L 389.36945 277.893201 
L 410.314078 284.509621 
L 431.258706 269.255703 
L 452.203334 282.510902 
L 473.147962 314.875334 
" clip-path="url(#p65f1f97a3f)" style="fill: none; stroke: #d62728; stroke-linecap: square"/>
    <defs>
     <path id="m5f25ee81a4" d="M 0 3 
C 0.795609 3 1.55874 2.683901 2.12132 2.12132 
C 2.683901 1.55874 3 0.795609 3 0 
C 3 -0.795609 2.683901 -1.55874 2.12132 -2.12132 
C 1.55874 -2.683901 0.795609 -3 0 -3 
C -0.795609 -3 -1.55874 -2.683901 -2.12132 -2.12132 
C -2.683901 -1.55874 -3 -0.795609 -3 0 
C -3 0.795609 -2.683901 1.55874 -2.12132 2.12132 
C -1.55874 2.683901 -0.795609 3 0 3 
z
" style="stroke: #d62728"/>
    </defs>
    <g clip-path="url(#p65f1f97a3f)">
     <use xlink:href="#m5f25ee81a4" x="96.144657" y="39.493064" style="fill: #d62728; stroke: #d62728"/>
     <use xlink:href="#m5f25ee81a4" x="117.089285" y="42.302556" style="fill: #d62728; stroke: #d62728"/>
     <use xlink:href="#m5f25ee81a4" x="138.033913" y="45.188641" style="fill: #d62728; stroke: #d62728"/>
     <use xlink:href="#m5f25ee81a4" x="158.978541" y="51.460831" style="fill: #d62728; stroke: #d62728"/>
     <use xlink:href="#m5f25ee81a4" x="179.923169" y="66.093049" style="fill: #d62728; stroke: #d62728"/>
     <use xlink:href="#m5f25ee81a4" x="200.867797" y="105.975962" style="fill: #d62728; stroke: #d62728"/>
     <use xlink:href="#m5f25ee81a4" x="221.812425" y="190.592842" style="fill: #d62728; stroke: #d62728"/>
     <use xlink:href="#m5f25ee81a4" x="242.757053" y="144.778621" style="fill: #d62728; stroke: #d62728"/>
     <use xlink:href="#m5f25ee81a4" x="263.701681" y="189.553387" style="fill: #d62728; stroke: #d62728"/>
     <use xlink:href="#m5f25ee81a4" x="284.646309" y="201.339511" style="fill: #d62728; stroke: #d62728"/>
     <use xlink:href="#m5f25ee81a4" x="305.590937" y="205.776398" style="fill: #d62728; stroke: #d62728"/>
     <use xlink:href="#m5f25ee81a4" x="326.535566" y="224.8455" style="fill: #d62728; stroke: #d62728"/>
     <use xlink:href="#m5f25ee81a4" x="347.480194" y="236.174872" style="fill: #d62728; stroke: #d62728"/>
     <use xlink:href="#m5f25ee81a4" x="368.424822" y="245.664389" style="fill: #d62728; stroke: #d62728"/>
     <use xlink:href="#m5f25ee81a4" x="389.36945" y="277.893201" style="fill: #d62728; stroke: #d62728"/>
     <use xlink:href="#m5f25ee81a4" x="410.314078" y="284.509621" style="fill: #d62728; stroke: #d62728"/>
     <use xlink:href="#m5f25ee81a4" x="431.258706" y="269.255703" style="fill: #d62728; stroke: #d62728"/>
     <use xlink:href="#m5f25ee81a4" x="452.203334" y="282.510902" style="fill: #d62728; stroke: #d62728"/>
     <use xlink:href="#m5f25ee81a4" x="473.147962" y="314.875334" style="fill: #d62728; stroke: #d62728"/>
    </g>
   </g>
   <g id="line2d_16">
    <path d="M 96.144657 39.493064 
L 117.089285 54.721 
L 138.033913 140.579847 
L 158.978541 82.848719 
L 179.923169 248.504722 
L 200.867797 286.530501 
L 221.812425 308.140754 
" clip-path="url(#p65f1f97a3f)" style="fill: none; stroke: #9467bd; stroke-linecap: square"/>
    <defs>
     <path id="m7de3a042ee" d="M 0 3 
C 0.795609 3 1.55874 2.683901 2.12132 2.12132 
C 2.683901 1.55874 3 0.795609 3 0 
C 3 -0.795609 2.683901 -1.55874 2.12132 -2.12132 
C 1.55874 -2.683901 0.795609 -3 0 -3 
C -0.795609 -3 -1.55874 -2.683901 -2.12132 -2.12132 
C -2.683901 -1.55874 -3 -0.795609 -3 0 
C -3 0.795609 -2.683901 1.55874 -2.12132 2.12132 
C -1.55874 2.683901 -0.795609 3 0 3 
z
" style="stroke: #9467bd"/>
    </defs>
    <g clip-path="url(#p65f1f97a3f)">
     <use xlink:href="#m7de3a042ee" x="96.144657" y="39.493064" style="fill: #9467bd; stroke: #9467bd"/>
     <use xlink:href="#m7de3a042ee" x="117.089285" y="54.721" style="fill: #9467bd; stroke: #9467bd"/>
     <use xlink:href="#m7de3a042ee" x="138.033913" y="140.579847" style="fill: #9467bd; stroke: #9467bd"/>
     <use xlink:href="#m7de3a042ee" x="158.978541" y="82.848719" style="fill: #9467bd; stroke: #9467bd"/>
     <use xlink:href="#m7de3a042ee" x="179.923169" y="248.504722" style="fill: #9467bd; stroke: #9467bd"/>
     <use xlink:href="#m7de3a042ee" x="200.867797" y="286.530501" style="fill: #9467bd; stroke: #9467bd"/>
     <use xlink:href="#m7de3a042ee" x="221.812425" y="308.140754" style="fill: #9467bd; stroke: #9467bd"/>
    </g>
   </g>
   <g id="line2d_17">
    <path d="M 96.144657 39.493064 
L 117.089285 42.503418 
L 138.033913 49.369393 
L 158.978541 80.280289 
L 179.923169 144.648214 
L 200.867797 91.459369 
L 221.812425 127.193495 
L 242.757053 143.451763 
L 263.701681 145.272852 
L 284.646309 183.023972 
L 305.590937 298.123488 
L 326.535566 142.175231 
L 347.480194 142.349046 
L 368.424822 180.297638 
L 389.36945 171.862364 
L 410.314078 330.650834 
" clip-path="url(#p65f1f97a3f)" style="fill: none; stroke: #8c564b; stroke-linecap: square"/>
    <defs>
     <path id="m887257523d" d="M 0 3 
C 0.795609 3 1.55874 2.683901 2.12132 2.12132 
C 2.683901 1.55874 3 0.795609 3 0 
C 3 -0.795609 2.683901 -1.55874 2.12132 -2.12132 
C 1.55874 -2.683901 0.795609 -3 0 -3 
C -0.795609 -3 -1.55874 -2.683901 -2.12132 -2.12132 
C -2.683901 -1.55874 -3 -0.795609 -3 0 
C -3 0.795609 -2.683901 1.55874 -2.12132 2.12132 
C -1.55874 2.683901 -0.795609 3 0 3 
z
" style="stroke: #8c564b"/>
    </defs>
    <g clip-path="url(#p65f1f97a3f)">
     <use xlink:href="#m887257523d" x="96.144657" y="39.493064" style="fill: #8c564b; stroke: #8c564b"/>
     <use xlink:href="#m887257523d" x="117.089285" y="42.503418" style="fill: #8c564b; stroke: #8c564b"/>
     <use xlink:href="#m887257523d" x="138.033913" y="49.369393" style="fill: #8c564b; stroke: #8c564b"/>
     <use xlink:href="#m887257523d" x="158.978541" y="80.280289" style="fill: #8c564b; stroke: #8c564b"/>
     <use xlink:href="#m887257523d" x="179.923169" y="144.648214" style="fill: #8c564b; stroke: #8c564b"/>
     <use xlink:href="#m887257523d" x="200.867797" y="91.459369" style="fill: #8c564b; stroke: #8c564b"/>
     <use xlink:href="#m887257523d" x="221.812425" y="127.193495" style="fill: #8c564b; stroke: #8c564b"/>
     <use xlink:href="#m887257523d" x="242.757053" y="143.451763" style="fill: #8c564b; stroke: #8c564b"/>
     <use xlink:href="#m887257523d" x="263.701681" y="145.272852" style="fill: #8c564b; stroke: #8c564b"/>
     <use xlink:href="#m887257523d" x="284.646309" y="183.023972" style="fill: #8c564b; stroke: #8c564b"/>
     <use xlink:href="#m887257523d" x="305.590937" y="298.123488" style="fill: #8c564b; stroke: #8c564b"/>
     <use xlink:href="#m887257523d" x="326.535566" y="142.175231" style="fill: #8c564b; stroke: #8c564b"/>
     <use xlink:href="#m887257523d" x="347.480194" y="142.349046" style="fill: #8c564b; stroke: #8c564b"/>
     <use xlink:href="#m887257523d" x="368.424822" y="180.297638" style="fill: #8c564b; stroke: #8c564b"/>
     <use xlink:href="#m887257523d" x="389.36945" y="171.862364" style="fill: #8c564b; stroke: #8c564b"/>
     <use xlink:href="#m887257523d" x="410.314078" y="330.650834" style="fill: #8c564b; stroke: #8c564b"/>
    </g>
   </g>
   <g id="patch_3">
    <path d="M 52.160938 386.918125 
L 52.160938 22.318125 
" style="fill: none; stroke: #000000; stroke-width: 0.8; stroke-linejoin: miter; stroke-linecap: square"/>
   </g>
   <g id="patch_4">
    <path d="M 559.020937 386.918125 
L 559.020937 22.318125 
" style="fill: none; stroke: #000000; stroke-width: 0.8; stroke-linejoin: miter; stroke-linecap: square"/>
   </g>
   <g id="patch_5">
    <path d="M 52.160938 386.918125 
L 559.020937 386.918125 
" style="fill: none; stroke: #000000; stroke-width: 0.8; stroke-linejoin: miter; stroke-linecap: square"/>
   </g>
   <g id="patch_6">
    <path d="M 52.160938 22.318125 
L 559.020937 22.318125 
" style="fill: none; stroke: #000000; stroke-width: 0.8; stroke-linejoin: miter; stroke-linecap: square"/>
   </g>
   <g id="text_13">
    <!-- Tests on MWD design -->
    <g transform="translate(241.822187 16.318125) scale(0.12 -0.12)">
     <defs>
      <path id="DejaVuSans-54" d="M -19 4666 
L 3928 4666 
L 3928 4134 
L 2272 4134 
L 2272 0 
L 1638 0 
L 1638 4134 
L -19 4134 
L -19 4666 
z
" transform="scale(0.015625)"/>
      <path id="DejaVuSans-4d" d="M 628 4666 
L 1569 4666 
L 2759 1491 
L 3956 4666 
L 4897 4666 
L 4897 0 
L 4281 0 
L 4281 4097 
L 3078 897 
L 2444 897 
L 1241 4097 
L 1241 0 
L 628 0 
L 628 4666 
z
" transform="scale(0.015625)"/>
      <path id="DejaVuSans-57" d="M 213 4666 
L 850 4666 
L 1831 722 
L 2809 4666 
L 3519 4666 
L 4500 722 
L 5478 4666 
L 6119 4666 
L 4947 0 
L 4153 0 
L 3169 4050 
L 2175 0 
L 1381 0 
L 213 4666 
z
" transform="scale(0.015625)"/>
      <path id="DejaVuSans-44" d="M 1259 4147 
L 1259 519 
L 2022 519 
Q 2988 519 3436 956 
Q 3884 1394 3884 2338 
Q 3884 3275 3436 3711 
Q 2988 4147 2022 4147 
L 1259 4147 
z
M 628 4666 
L 1925 4666 
Q 3281 4666 3915 4102 
Q 4550 3538 4550 2338 
Q 4550 1131 3912 565 
Q 3275 0 1925 0 
L 628 0 
L 628 4666 
z
" transform="scale(0.015625)"/>
      <path id="DejaVuSans-64" d="M 2906 2969 
L 2906 4863 
L 3481 4863 
L 3481 0 
L 2906 0 
L 2906 525 
Q 2725 213 2448 61 
Q 2172 -91 1784 -91 
Q 1150 -91 751 415 
Q 353 922 353 1747 
Q 353 2572 751 3078 
Q 1150 3584 1784 3584 
Q 2172 3584 2448 3432 
Q 2725 3281 2906 2969 
z
M 947 1747 
Q 947 1113 1208 752 
Q 1469 391 1925 391 
Q 2381 391 2643 752 
Q 2906 1113 2906 1747 
Q 2906 2381 2643 2742 
Q 2381 3103 1925 3103 
Q 1469 3103 1208 2742 
Q 947 2381 947 1747 
z
" transform="scale(0.015625)"/>
     </defs>
     <use xlink:href="#DejaVuSans-54"/>
     <use xlink:href="#DejaVuSans-65" x="44.083984"/>
     <use xlink:href="#DejaVuSans-73" x="105.607422"/>
     <use xlink:href="#DejaVuSans-74" x="157.707031"/>
     <use xlink:href="#DejaVuSans-73" x="196.916016"/>
     <use xlink:href="#DejaVuSans-20" x="249.015625"/>
     <use xlink:href="#DejaVuSans-6f" x="280.802734"/>
     <use xlink:href="#DejaVuSans-6e" x="341.984375"/>
     <use xlink:href="#DejaVuSans-20" x="405.363281"/>
     <use xlink:href="#DejaVuSans-4d" x="437.150391"/>
     <use xlink:href="#DejaVuSans-57" x="523.429688"/>
     <use xlink:href="#DejaVuSans-44" x="622.306641"/>
     <use xlink:href="#DejaVuSans-20" x="699.308594"/>
     <use xlink:href="#DejaVuSans-64" x="731.095703"/>
     <use xlink:href="#DejaVuSans-65" x="794.572266"/>
     <use xlink:href="#DejaVuSans-73" x="856.095703"/>
     <use xlink:href="#DejaVuSans-69" x="908.195312"/>
     <use xlink:href="#DejaVuSans-67" x="935.978516"/>
     <use xlink:href="#DejaVuSans-6e" x="999.455078"/>
    </g>
   </g>
   <g id="legend_1">
    <g id="patch_7">
     <path d="M 461.325625 135.343125 
L 554.020937 135.343125 
Q 556.020937 135.343125 556.020937 133.343125 
L 556.020937 31.318125 
Q 556.020937 29.318125 554.020937 29.318125 
L 461.325625 29.318125 
Q 459.325625 29.318125 459.325625 31.318125 
L 459.325625 133.343125 
Q 459.325625 135.343125 461.325625 135.343125 
z
" style="fill: #4d4d4d; opacity: 0.5; stroke: #4d4d4d; stroke-linejoin: miter"/>
    </g>
    <g id="patch_8">
     <path d="M 459.325625 133.343125 
L 552.020937 133.343125 
Q 554.020937 133.343125 554.020937 131.343125 
L 554.020937 29.318125 
Q 554.020937 27.318125 552.020937 27.318125 
L 459.325625 27.318125 
Q 457.325625 27.318125 457.325625 29.318125 
L 457.325625 131.343125 
Q 457.325625 133.343125 459.325625 133.343125 
z
" style="fill: #ffffff; stroke: #cccccc; stroke-linejoin: miter"/>
    </g>
    <g id="line2d_18">
     <path d="M 461.325625 35.416562 
L 471.325625 35.416562 
L 481.325625 35.416562 
" style="fill: none; stroke-dasharray: 6.4,1.6,1,1.6; stroke-dashoffset: 0; stroke: #000000"/>
    </g>
    <g id="text_14">
     <!-- error_bound -->
     <g transform="translate(489.325625 38.916562) scale(0.1 -0.1)">
      <defs>
       <path id="DejaVuSans-5f" d="M 3263 -1063 
L 3263 -1509 
L -63 -1509 
L -63 -1063 
L 3263 -1063 
z
" transform="scale(0.015625)"/>
      </defs>
      <use xlink:href="#DejaVuSans-65"/>
      <use xlink:href="#DejaVuSans-72" x="61.523438"/>
      <use xlink:href="#DejaVuSans-72" x="100.886719"/>
      <use xlink:href="#DejaVuSans-6f" x="139.75"/>
      <use xlink:href="#DejaVuSans-72" x="200.931641"/>
      <use xlink:href="#DejaVuSans-5f" x="242.044922"/>
      <use xlink:href="#DejaVuSans-62" x="292.044922"/>
      <use xlink:href="#DejaVuSans-6f" x="355.521484"/>
      <use xlink:href="#DejaVuSans-75" x="416.703125"/>
      <use xlink:href="#DejaVuSans-6e" x="480.082031"/>
      <use xlink:href="#DejaVuSans-64" x="543.460938"/>
     </g>
    </g>
    <g id="LineCollection_7">
     <path d="M 471.325625 55.372812 
L 471.325625 45.372812 
" style="fill: none; stroke: #1f77b4"/>
    </g>
    <g id="line2d_19">
     <path d="M 461.325625 50.372812 
L 481.325625 50.372812 
" style="fill: none; stroke: #1f77b4; stroke-linecap: square"/>
    </g>
    <g id="line2d_20">
     <g>
      <use xlink:href="#mdaa04f534e" x="471.325625" y="50.372812" style="fill: #1f77b4; stroke: #1f77b4"/>
     </g>
    </g>
    <g id="text_15">
     <!-- bobyqa -->
     <g transform="translate(489.325625 53.872812) scale(0.1 -0.1)">
      <defs>
       <path id="DejaVuSans-79" d="M 2059 -325 
Q 1816 -950 1584 -1140 
Q 1353 -1331 966 -1331 
L 506 -1331 
L 506 -850 
L 844 -850 
Q 1081 -850 1212 -737 
Q 1344 -625 1503 -206 
L 1606 56 
L 191 3500 
L 800 3500 
L 1894 763 
L 2988 3500 
L 3597 3500 
L 2059 -325 
z
" transform="scale(0.015625)"/>
       <path id="DejaVuSans-71" d="M 947 1747 
Q 947 1113 1208 752 
Q 1469 391 1925 391 
Q 2381 391 2643 752 
Q 2906 1113 2906 1747 
Q 2906 2381 2643 2742 
Q 2381 3103 1925 3103 
Q 1469 3103 1208 2742 
Q 947 2381 947 1747 
z
M 2906 525 
Q 2725 213 2448 61 
Q 2172 -91 1784 -91 
Q 1150 -91 751 415 
Q 353 922 353 1747 
Q 353 2572 751 3078 
Q 1150 3584 1784 3584 
Q 2172 3584 2448 3432 
Q 2725 3281 2906 2969 
L 2906 3500 
L 3481 3500 
L 3481 -1331 
L 2906 -1331 
L 2906 525 
z
" transform="scale(0.015625)"/>
       <path id="DejaVuSans-61" d="M 2194 1759 
Q 1497 1759 1228 1600 
Q 959 1441 959 1056 
Q 959 750 1161 570 
Q 1363 391 1709 391 
Q 2188 391 2477 730 
Q 2766 1069 2766 1631 
L 2766 1759 
L 2194 1759 
z
M 3341 1997 
L 3341 0 
L 2766 0 
L 2766 531 
Q 2569 213 2275 61 
Q 1981 -91 1556 -91 
Q 1019 -91 701 211 
Q 384 513 384 1019 
Q 384 1609 779 1909 
Q 1175 2209 1959 2209 
L 2766 2209 
L 2766 2266 
Q 2766 2663 2505 2880 
Q 2244 3097 1772 3097 
Q 1472 3097 1187 3025 
Q 903 2953 641 2809 
L 641 3341 
Q 956 3463 1253 3523 
Q 1550 3584 1831 3584 
Q 2591 3584 2966 3190 
Q 3341 2797 3341 1997 
z
" transform="scale(0.015625)"/>
      </defs>
      <use xlink:href="#DejaVuSans-62"/>
      <use xlink:href="#DejaVuSans-6f" x="63.476562"/>
      <use xlink:href="#DejaVuSans-62" x="124.658203"/>
      <use xlink:href="#DejaVuSans-79" x="188.134766"/>
      <use xlink:href="#DejaVuSans-71" x="247.314453"/>
      <use xlink:href="#DejaVuSans-61" x="310.791016"/>
     </g>
    </g>
    <g id="LineCollection_8">
     <path d="M 471.325625 70.050937 
L 471.325625 60.050937 
" style="fill: none; stroke: #ff7f0e"/>
    </g>
    <g id="line2d_21">
     <path d="M 461.325625 65.050937 
L 481.325625 65.050937 
" style="fill: none; stroke: #ff7f0e; stroke-linecap: square"/>
    </g>
    <g id="line2d_22">
     <g>
      <use xlink:href="#m0d9dbb03aa" x="471.325625" y="65.050937" style="fill: #ff7f0e; stroke: #ff7f0e"/>
     </g>
    </g>
    <g id="text_16">
     <!-- ei -->
     <g transform="translate(489.325625 68.550937) scale(0.1 -0.1)">
      <use xlink:href="#DejaVuSans-65"/>
      <use xlink:href="#DejaVuSans-69" x="61.523438"/>
     </g>
    </g>
    <g id="LineCollection_9">
     <path d="M 471.325625 84.729062 
L 471.325625 74.729062 
" style="fill: none; stroke: #2ca02c"/>
    </g>
    <g id="line2d_23">
     <path d="M 461.325625 79.729062 
L 481.325625 79.729062 
" style="fill: none; stroke: #2ca02c; stroke-linecap: square"/>
    </g>
    <g id="line2d_24">
     <g>
      <use xlink:href="#m38eb4187af" x="471.325625" y="79.729062" style="fill: #2ca02c; stroke: #2ca02c"/>
     </g>
    </g>
    <g id="text_17">
     <!-- gibbon -->
     <g transform="translate(489.325625 83.229062) scale(0.1 -0.1)">
      <use xlink:href="#DejaVuSans-67"/>
      <use xlink:href="#DejaVuSans-69" x="63.476562"/>
      <use xlink:href="#DejaVuSans-62" x="91.259766"/>
      <use xlink:href="#DejaVuSans-62" x="154.736328"/>
      <use xlink:href="#DejaVuSans-6f" x="218.212891"/>
      <use xlink:href="#DejaVuSans-6e" x="279.394531"/>
     </g>
    </g>
    <g id="LineCollection_10">
     <path d="M 471.325625 99.407187 
L 471.325625 89.407187 
" style="fill: none; stroke: #d62728"/>
    </g>
    <g id="line2d_25">
     <path d="M 461.325625 94.407187 
L 481.325625 94.407187 
" style="fill: none; stroke: #d62728; stroke-linecap: square"/>
    </g>
    <g id="line2d_26">
     <g>
      <use xlink:href="#m5f25ee81a4" x="471.325625" y="94.407187" style="fill: #d62728; stroke: #d62728"/>
     </g>
    </g>
    <g id="text_18">
     <!-- mves -->
     <g transform="translate(489.325625 97.907187) scale(0.1 -0.1)">
      <defs>
       <path id="DejaVuSans-76" d="M 191 3500 
L 800 3500 
L 1894 563 
L 2988 3500 
L 3597 3500 
L 2284 0 
L 1503 0 
L 191 3500 
z
" transform="scale(0.015625)"/>
      </defs>
      <use xlink:href="#DejaVuSans-6d"/>
      <use xlink:href="#DejaVuSans-76" x="97.412109"/>
      <use xlink:href="#DejaVuSans-65" x="156.591797"/>
      <use xlink:href="#DejaVuSans-73" x="218.115234"/>
     </g>
    </g>
    <g id="LineCollection_11">
     <path d="M 471.325625 114.085312 
L 471.325625 104.085312 
" style="fill: none; stroke: #9467bd"/>
    </g>
    <g id="line2d_27">
     <path d="M 461.325625 109.085312 
L 481.325625 109.085312 
" style="fill: none; stroke: #9467bd; stroke-linecap: square"/>
    </g>
    <g id="line2d_28">
     <g>
      <use xlink:href="#m7de3a042ee" x="471.325625" y="109.085312" style="fill: #9467bd; stroke: #9467bd"/>
     </g>
    </g>
    <g id="text_19">
     <!-- tbobo -->
     <g transform="translate(489.325625 112.585312) scale(0.1 -0.1)">
      <use xlink:href="#DejaVuSans-74"/>
      <use xlink:href="#DejaVuSans-62" x="39.208984"/>
      <use xlink:href="#DejaVuSans-6f" x="102.685547"/>
      <use xlink:href="#DejaVuSans-62" x="163.867188"/>
      <use xlink:href="#DejaVuSans-6f" x="227.34375"/>
     </g>
    </g>
    <g id="LineCollection_12">
     <path d="M 471.325625 128.763437 
L 471.325625 118.763437 
" style="fill: none; stroke: #8c564b"/>
    </g>
    <g id="line2d_29">
     <path d="M 461.325625 123.763437 
L 481.325625 123.763437 
" style="fill: none; stroke: #8c564b; stroke-linecap: square"/>
    </g>
    <g id="line2d_30">
     <g>
      <use xlink:href="#m887257523d" x="471.325625" y="123.763437" style="fill: #8c564b; stroke: #8c564b"/>
     </g>
    </g>
    <g id="text_20">
     <!-- ucb -->
     <g transform="translate(489.325625 127.263437) scale(0.1 -0.1)">
      <defs>
       <path id="DejaVuSans-63" d="M 3122 3366 
L 3122 2828 
Q 2878 2963 2633 3030 
Q 2388 3097 2138 3097 
Q 1578 3097 1268 2742 
Q 959 2388 959 1747 
Q 959 1106 1268 751 
Q 1578 397 2138 397 
Q 2388 397 2633 464 
Q 2878 531 3122 666 
L 3122 134 
Q 2881 22 2623 -34 
Q 2366 -91 2075 -91 
Q 1284 -91 818 406 
Q 353 903 353 1747 
Q 353 2603 823 3093 
Q 1294 3584 2113 3584 
Q 2378 3584 2631 3529 
Q 2884 3475 3122 3366 
z
" transform="scale(0.015625)"/>
      </defs>
      <use xlink:href="#DejaVuSans-75"/>
      <use xlink:href="#DejaVuSans-63" x="63.378906"/>
      <use xlink:href="#DejaVuSans-62" x="118.359375"/>
     </g>
    </g>
   </g>
  </g>
 </g>
 <defs>
  <clipPath id="p65f1f97a3f">
   <rect x="52.160938" y="22.318125" width="506.86" height="364.6"/>
  </clipPath>
 </defs>
</svg>
