<svg class="main-svg" xmlns="http://www.w3.org/2000/svg" xmlns:xlink="http://www.w3.org/1999/xlink" width="696" height="400" style="" viewBox="0 0 696 400"><rect x="0" y="0" width="696" height="400" style="fill: rgb(0, 0, 0); fill-opacity: 0;"/><defs id="defs-71729d"><g class="clips"><clipPath id="clip71729dxyplot" class="plotclip"><rect width="512" height="302"/></clipPath><clipPath class="axesclip" id="clip71729dx"><rect x="67" y="0" width="512" height="400"/></clipPath><clipPath class="axesclip" id="clip71729dy"><rect x="0" y="40" width="696" height="302"/></clipPath><clipPath class="axesclip" id="clip71729dxy"><rect x="67" y="40" width="512" height="302"/></clipPath></g><g class="gradients"/><g class="patterns"/></defs><g class="bglayer"><rect class="bg" x="64" y="37" width="518" height="308" style="fill: rgb(0, 0, 0); fill-opacity: 0; stroke-width: 0;"/></g><g class="layer-below"><g class="imagelayer"/><g class="shapelayer"/></g><g class="cartesianlayer"><g class="subplot xy"><g class="layer-subplot"><g class="shapelayer"/><g class="imagelayer"/></g><g class="gridlayer"><g class="x"><path class="xgrid crisp" transform="translate(195,0)" d="M0,40v302" style="stroke: rgb(255, 255, 255); stroke-opacity: 1; stroke-width: 1px;"/><path class="xgrid crisp" transform="translate(323,0)" d="M0,40v302" style="stroke: rgb(255, 255, 255); stroke-opacity: 1; stroke-width: 1px;"/><path class="xgrid crisp" transform="translate(451,0)" d="M0,40v302" style="stroke: rgb(255, 255, 255); stroke-opacity: 1; stroke-width: 1px;"/></g><g class="y"><path class="ygrid crisp" transform="translate(0,284.05)" d="M67,0h512" style="stroke: rgb(255, 255, 255); stroke-opacity: 1; stroke-width: 1px;"/><path class="ygrid crisp" transform="translate(0,241.19)" d="M67,0h512" style="stroke: rgb(255, 255, 255); stroke-opacity: 1; stroke-width: 1px;"/><path class="ygrid crisp" transform="translate(0,198.34)" d="M67,0h512" style="stroke: rgb(255, 255, 255); stroke-opacity: 1; stroke-width: 1px;"/><path class="ygrid crisp" transform="translate(0,155.49)" d="M67,0h512" style="stroke: rgb(255, 255, 255); stroke-opacity: 1; stroke-width: 1px;"/><path class="ygrid crisp" transform="translate(0,112.64)" d="M67,0h512" style="stroke: rgb(255, 255, 255); stroke-opacity: 1; stroke-width: 1px;"/><path class="ygrid crisp" transform="translate(0,69.78)" d="M67,0h512" style="stroke: rgb(255, 255, 255); stroke-opacity: 1; stroke-width: 1px;"/></g></g><g class="zerolinelayer"><path class="xzl zl crisp" transform="translate(67,0)" d="M0,40v302" style="stroke: rgb(255, 255, 255); stroke-opacity: 1; stroke-width: 2px;"/><path class="yzl zl crisp" transform="translate(0,326.9)" d="M67,0h512" style="stroke: rgb(255, 255, 255); stroke-opacity: 1; stroke-width: 2px;"/></g><path class="xlines-below"/><path class="ylines-below"/><g class="overlines-below"/><g class="xaxislayer-below"/><g class="yaxislayer-below"/><g class="overaxes-below"/><g class="plot" transform="translate(67,40)" clip-path="url(#clip71729dxyplot)"><g class="scatterlayer mlayer"><g class="trace scatter trace8824b2" style="stroke-miterlimit: 2; opacity: 1;"><g class="fills"/><g class="errorbars"/><g class="lines"><path class="js-line" d="M0,286.9L5.13,286.14L6.42,285.66L16.68,281.81L17.96,281.6L24.38,281.57L25.66,281.72L39.78,283.73L41.06,283.58L64.16,281.77L65.44,281.72L88.54,281.71L89.82,281.75L121.9,283.24L123.19,283.31L180.93,285.72L182.22,285.75L254.08,286.71L255.36,286.71L373.41,286.89L374.7,286.89L512,286.9" style="vector-effect: non-scaling-stroke; fill: none; stroke: rgb(99, 110, 250); stroke-opacity: 1; stroke-width: 2px; opacity: 1;"/></g><g class="points"/><g class="text"/></g><g class="trace scatter tracee90342" style="stroke-miterlimit: 2; opacity: 1;"><g class="fills"/><g class="errorbars"/><g class="lines"><path class="js-line" d="M0,286.9L5.13,286.35L6.42,285.97L21.81,280.68L23.1,280.53L30.8,280.69L32.08,280.84L39.78,281.32L41.06,281.01L64.16,276.36L65.44,276.18L80.84,274.81L82.13,274.76L100.09,274.89L101.37,274.95L127.04,276.87L128.32,276.98L192.48,282.25L193.76,282.35L250.23,285.58L251.51,285.63L302.84,286.5L304.12,286.51L449.12,286.9L450.41,286.9L512,286.9" style="vector-effect: non-scaling-stroke; fill: none; stroke: rgb(239, 85, 59); stroke-opacity: 1; stroke-width: 2px; opacity: 1;"/></g><g class="points"/><g class="text"/></g><g class="trace scatter trace4dfeb1" style="stroke-miterlimit: 2; opacity: 1;"><g class="fills"/><g class="errorbars"/><g class="lines"><path class="js-line" d="M0,286.9L5.13,286.22L6.42,285.74L15.4,280.81L16.68,280.16L23.1,277.96L24.38,277.75L30.8,277.69L32.08,277.84L38.5,278.7L39.78,278.3L55.18,274.27L56.46,274.02L69.29,272.41L70.58,272.33L84.69,272.3L85.97,272.37L103.94,274.04L105.22,274.2L175.8,283.06L177.08,283.17L214.3,285.35L215.58,285.4L275.89,286.57L277.17,286.58L342.62,286.86L343.9,286.86L512,286.9" style="vector-effect: non-scaling-stroke; fill: none; stroke: rgb(0, 204, 150); stroke-opacity: 1; stroke-width: 2px; opacity: 1;"/></g><g class="points"/><g class="text"/></g><g class="trace scatter tracec4ad70" style="stroke-miterlimit: 2; opacity: 1;"><g class="fills"/><g class="errorbars"/><g class="lines"><path class="js-line" d="M0,286.9L5.13,286.07L6.42,285.47L12.83,280.97L14.12,279.98L20.53,275.85L21.81,275.28L26.95,273.94L28.23,273.83L34.65,274.36L35.93,274.64L38.5,274.72L39.78,273.99L60.31,262.7L61.59,262.1L73.14,257.58L74.43,257.19L84.69,254.76L85.97,254.55L97.52,253.54L98.81,253.52L111.64,254.15L112.92,254.29L129.6,257.04L130.89,257.31L159.12,264.23L160.4,264.57L197.61,273.43L198.9,273.69L223.28,277.95L224.56,278.13L250.23,281.24L251.51,281.36L282.31,283.76L283.59,283.83L323.37,285.58L324.65,285.61L375.98,286.48L377.26,286.49L512,286.9" style="vector-effect: non-scaling-stroke; fill: none; stroke: rgb(171, 99, 250); stroke-opacity: 1; stroke-width: 2px; opacity: 1;"/></g><g class="points"/><g class="text"/></g><g class="trace scatter tracec66b17" style="stroke-miterlimit: 2; opacity: 1;"><g class="fills"/><g class="errorbars"/><g class="lines"><path class="js-line" d="M0,286.9L3.85,286.35L5.13,285.74L8.98,282.59L10.27,281.21L21.81,268.84L23.1,267.94L28.23,265.73L29.51,265.51L34.65,265.74L35.93,266.03L38.5,266.1L39.78,265.21L48.76,259.82L50.05,259.2L57.74,256.41L59.03,256.1L66.73,255.02L68.01,254.96L76.99,255.49L78.28,255.68L89.82,258.29L91.11,258.66L110.36,265.09L111.64,265.54L137.3,273.82L138.59,274.18L157.83,278.73L159.12,278.98L178.37,282.05L179.65,282.22L206.6,284.68L207.88,284.76L241.24,286.11L242.53,286.14L301.55,286.79L302.84,286.79L411.91,286.9L413.19,286.9L512,286.9" style="vector-effect: non-scaling-stroke; fill: none; stroke: rgb(255, 161, 90); stroke-opacity: 1; stroke-width: 2px; opacity: 1;"/></g><g class="points"/><g class="text"/></g><g class="trace scatter trace33c4b1" style="stroke-miterlimit: 2; opacity: 1;"><g class="fills"/><g class="errorbars"/><g class="lines"><path class="js-line" d="M0,286.9L3.85,286.07L5.13,285.2L8.98,280.93L10.27,279.16L17.96,269.1L19.25,267.88L23.1,265.37L24.38,264.9L28.23,264.53L29.51,264.7L34.65,266.46L35.93,267.1L37.21,267.8L38.5,267.56L53.89,255.49L55.18,254.63L64.16,249.52L65.44,248.93L74.43,245.75L75.71,245.43L84.69,244.13L85.97,244.06L96.24,244.52L97.52,244.68L109.07,247.02L110.36,247.36L127.04,252.69L128.32,253.15L175.8,269.64L177.08,270.01L198.9,275.51L200.18,275.78L221.99,279.67L223.28,279.86L246.38,282.59L247.66,282.7L277.17,284.74L278.46,284.81L323.37,286.19L324.65,286.21L410.63,286.82L411.91,286.83L512,286.9" style="vector-effect: non-scaling-stroke; fill: none; stroke: rgb(25, 211, 243); stroke-opacity: 1; stroke-width: 2px; opacity: 1;"/></g><g class="points"/><g class="text"/></g><g class="trace scatter trace5e6b83" style="stroke-miterlimit: 2; opacity: 1;"><g class="fills"/><g class="errorbars"/><g class="lines"><path class="js-line" d="M0,286.9L2.57,286.59L3.85,285.93L6.42,283.1L7.7,280.86L11.55,270.96L12.83,266.75L19.25,241.8L20.53,236.48L28.23,206.81L29.51,202.6L34.65,188.69L35.93,186L37.21,183.67L38.5,179.22L55.18,99.7L56.46,94.29L64.16,65.25L65.44,61.02L71.86,42.69L73.14,39.6L78.28,29.13L79.56,26.99L84.69,20.27L85.97,19.04L89.82,16.37L91.11,15.82L94.96,15.1L96.24,15.16L100.09,16.2L101.37,16.82L106.51,20.53L107.79,21.74L114.21,29.32L115.49,31.11L123.19,43.43L124.47,45.71L136.02,68.27L137.3,70.95L180.93,162.29L182.22,164.68L195.05,186.95L196.33,189.02L209.16,207.97L210.45,209.7L221.99,223.96L223.28,225.4L234.83,237.19L236.11,238.37L247.66,247.97L248.94,248.93L261.77,257.43L263.06,258.17L275.89,264.79L277.17,265.37L292.57,271.34L293.85,271.76L310.54,276.38L311.82,276.68L329.78,280.07L331.07,280.27L354.17,282.98L355.45,283.1L386.25,285.01L387.53,285.07L440.14,286.41L441.42,286.42L512,286.9" style="vector-effect: non-scaling-stroke; fill: none; stroke: rgb(255, 102, 146); stroke-opacity: 1; stroke-width: 2px; opacity: 1;"/></g><g class="points"/><g class="text"/></g></g></g><g class="overplot"/><path class="xlines-above crisp" d="M63,345.5H579" style="fill: none; stroke-width: 1px; stroke: rgb(0, 0, 0); stroke-opacity: 1;"/><path class="ylines-above crisp" d="M63.5,40V345" style="fill: none; stroke-width: 1px; stroke: rgb(0, 0, 0); stroke-opacity: 1;"/><g class="overlines-above"/><g class="xaxislayer-above"><g class="xtick"><text text-anchor="middle" x="0" y="360.4" transform="translate(67,0)" style="font-family: Arial; font-size: 12px; fill: rgb(0, 0, 0); fill-opacity: 1; white-space: pre; opacity: 1;">0</text></g><g class="xtick"><text text-anchor="middle" x="0" y="360.4" style="font-family: Arial; font-size: 12px; fill: rgb(0, 0, 0); fill-opacity: 1; white-space: pre; opacity: 1;" transform="translate(195,0)">1</text></g><g class="xtick"><text text-anchor="middle" x="0" y="360.4" style="font-family: Arial; font-size: 12px; fill: rgb(0, 0, 0); fill-opacity: 1; white-space: pre; opacity: 1;" transform="translate(323,0)">2</text></g><g class="xtick"><text text-anchor="middle" x="0" y="360.4" style="font-family: Arial; font-size: 12px; fill: rgb(0, 0, 0); fill-opacity: 1; white-space: pre; opacity: 1;" transform="translate(451,0)">3</text></g><g class="xtick"><text text-anchor="middle" x="0" y="360.4" style="font-family: Arial; font-size: 12px; fill: rgb(0, 0, 0); fill-opacity: 1; white-space: pre; opacity: 1;" transform="translate(579,0)">4</text></g></g><g class="yaxislayer-above"><g class="ytick"><text text-anchor="end" x="60.6" y="4.199999999999999" transform="translate(0,326.9)" style="font-family: Arial; font-size: 12px; fill: rgb(0, 0, 0); fill-opacity: 1; white-space: pre; opacity: 1;">0</text></g><g class="ytick"><text text-anchor="end" x="60.6" y="4.199999999999999" style="font-family: Arial; font-size: 12px; fill: rgb(0, 0, 0); fill-opacity: 1; white-space: pre; opacity: 1;" transform="translate(0,284.05)">0.05</text></g><g class="ytick"><text text-anchor="end" x="60.6" y="4.199999999999999" style="font-family: Arial; font-size: 12px; fill: rgb(0, 0, 0); fill-opacity: 1; white-space: pre; opacity: 1;" transform="translate(0,241.19)">0.1</text></g><g class="ytick"><text text-anchor="end" x="60.6" y="4.199999999999999" style="font-family: Arial; font-size: 12px; fill: rgb(0, 0, 0); fill-opacity: 1; white-space: pre; opacity: 1;" transform="translate(0,198.34)">0.15</text></g><g class="ytick"><text text-anchor="end" x="60.6" y="4.199999999999999" style="font-family: Arial; font-size: 12px; fill: rgb(0, 0, 0); fill-opacity: 1; white-space: pre; opacity: 1;" transform="translate(0,155.49)">0.2</text></g><g class="ytick"><text text-anchor="end" x="60.6" y="4.199999999999999" style="font-family: Arial; font-size: 12px; fill: rgb(0, 0, 0); fill-opacity: 1; white-space: pre; opacity: 1;" transform="translate(0,112.64)">0.25</text></g><g class="ytick"><text text-anchor="end" x="60.6" y="4.199999999999999" style="font-family: Arial; font-size: 12px; fill: rgb(0, 0, 0); fill-opacity: 1; white-space: pre; opacity: 1;" transform="translate(0,69.78)">0.3</text></g></g><g class="overaxes-above"/></g></g><g class="polarlayer"/><g class="smithlayer"/><g class="ternarylayer"/><g class="geolayer"/><g class="funnelarealayer"/><g class="pielayer"/><g class="iciclelayer"/><g class="treemaplayer"/><g class="sunburstlayer"/><g class="glimages"/><defs id="topdefs-71729d"><g class="clips"/><clipPath id="legend71729d"><rect width="97" height="143" x="0" y="0"/></clipPath></defs><g class="layer-above"><g class="imagelayer"/><g class="shapelayer"/></g><g class="infolayer"><g class="legend" pointer-events="all" transform="translate(589.24,40)"><rect class="bg" shape-rendering="crispEdges" style="stroke: rgb(68, 68, 68); stroke-opacity: 1; fill: rgb(0, 0, 0); fill-opacity: 0; stroke-width: 0px;" width="97" height="143" x="0" y="0"/><g class="scrollbox" transform="" clip-path="url(#legend71729d)"><g class="groups"><g class="traces" transform="translate(0,14.5)" style="opacity: 1;"><text class="legendtext" text-anchor="start" x="40" y="4.680000000000001" style="font-family: Arial; font-size: 12px; fill: rgb(0, 0, 0); fill-opacity: 1; white-space: pre;">Sample 1</text><g class="layers" style="opacity: 1;"><g class="legendfill"/><g class="legendlines"><path class="js-line" d="M5,0h30" style="fill: none; stroke: rgb(99, 110, 250); stroke-opacity: 1; stroke-width: 2px;"/></g><g class="legendsymbols"><g class="legendpoints"/></g></g><rect class="legendtoggle" x="0" y="-9.5" width="91.03125" height="19" style="fill: rgb(0, 0, 0); fill-opacity: 0;"/></g><g class="traces" transform="translate(0,33.5)" style="opacity: 1;"><text class="legendtext" text-anchor="start" x="40" y="4.680000000000001" style="font-family: Arial; font-size: 12px; fill: rgb(0, 0, 0); fill-opacity: 1; white-space: pre;">Sample 2</text><g class="layers" style="opacity: 1;"><g class="legendfill"/><g class="legendlines"><path class="js-line" d="M5,0h30" style="fill: none; stroke: rgb(239, 85, 59); stroke-opacity: 1; stroke-width: 2px;"/></g><g class="legendsymbols"><g class="legendpoints"/></g></g><rect class="legendtoggle" x="0" y="-9.5" width="91.03125" height="19" style="fill: rgb(0, 0, 0); fill-opacity: 0;"/></g><g class="traces" transform="translate(0,52.5)" style="opacity: 1;"><text class="legendtext" text-anchor="start" x="40" y="4.680000000000001" style="font-family: Arial; font-size: 12px; fill: rgb(0, 0, 0); fill-opacity: 1; white-space: pre;">Sample 3</text><g class="layers" style="opacity: 1;"><g class="legendfill"/><g class="legendlines"><path class="js-line" d="M5,0h30" style="fill: none; stroke: rgb(0, 204, 150); stroke-opacity: 1; stroke-width: 2px;"/></g><g class="legendsymbols"><g class="legendpoints"/></g></g><rect class="legendtoggle" x="0" y="-9.5" width="91.03125" height="19" style="fill: rgb(0, 0, 0); fill-opacity: 0;"/></g><g class="traces" transform="translate(0,71.5)" style="opacity: 1;"><text class="legendtext" text-anchor="start" x="40" y="4.680000000000001" style="font-family: Arial; font-size: 12px; fill: rgb(0, 0, 0); fill-opacity: 1; white-space: pre;">Sample 4</text><g class="layers" style="opacity: 1;"><g class="legendfill"/><g class="legendlines"><path class="js-line" d="M5,0h30" style="fill: none; stroke: rgb(171, 99, 250); stroke-opacity: 1; stroke-width: 2px;"/></g><g class="legendsymbols"><g class="legendpoints"/></g></g><rect class="legendtoggle" x="0" y="-9.5" width="91.03125" height="19" style="fill: rgb(0, 0, 0); fill-opacity: 0;"/></g><g class="traces" transform="translate(0,90.5)" style="opacity: 1;"><text class="legendtext" text-anchor="start" x="40" y="4.680000000000001" style="font-family: Arial; font-size: 12px; fill: rgb(0, 0, 0); fill-opacity: 1; white-space: pre;">Sample 5</text><g class="layers" style="opacity: 1;"><g class="legendfill"/><g class="legendlines"><path class="js-line" d="M5,0h30" style="fill: none; stroke: rgb(255, 161, 90); stroke-opacity: 1; stroke-width: 2px;"/></g><g class="legendsymbols"><g class="legendpoints"/></g></g><rect class="legendtoggle" x="0" y="-9.5" width="91.03125" height="19" style="fill: rgb(0, 0, 0); fill-opacity: 0;"/></g><g class="traces" transform="translate(0,109.5)" style="opacity: 1;"><text class="legendtext" text-anchor="start" x="40" y="4.680000000000001" style="font-family: Arial; font-size: 12px; fill: rgb(0, 0, 0); fill-opacity: 1; white-space: pre;">Sample 6</text><g class="layers" style="opacity: 1;"><g class="legendfill"/><g class="legendlines"><path class="js-line" d="M5,0h30" style="fill: none; stroke: rgb(25, 211, 243); stroke-opacity: 1; stroke-width: 2px;"/></g><g class="legendsymbols"><g class="legendpoints"/></g></g><rect class="legendtoggle" x="0" y="-9.5" width="91.03125" height="19" style="fill: rgb(0, 0, 0); fill-opacity: 0;"/></g><g class="traces" transform="translate(0,128.5)" style="opacity: 1;"><text class="legendtext" text-anchor="start" x="40" y="4.680000000000001" style="font-family: Arial; font-size: 12px; fill: rgb(0, 0, 0); fill-opacity: 1; white-space: pre;">Target</text><g class="layers" style="opacity: 1;"><g class="legendfill"/><g class="legendlines"><path class="js-line" d="M5,0h30" style="fill: none; stroke: rgb(255, 102, 146); stroke-opacity: 1; stroke-width: 2px;"/></g><g class="legendsymbols"><g class="legendpoints"/></g></g><rect class="legendtoggle" x="0" y="-9.5" width="91.03125" height="19" style="fill: rgb(0, 0, 0); fill-opacity: 0;"/></g></g></g><rect class="scrollbar" rx="20" ry="3" width="0" height="0" style="fill: rgb(128, 139, 164); fill-opacity: 1;" x="0" y="0"/></g><g class="g-gtitle"><text class="gtitle" x="34.800000000000004" y="20" text-anchor="start" dy="0em" style="font-family: Arial; font-size: 17px; fill: rgb(0, 0, 0); opacity: 1; font-weight: normal; white-space: pre;">Initial sample database and target</text></g><g class="g-xtitle"><text class="xtitle" x="323" y="390.30625" text-anchor="middle" style="font-family: Arial; font-size: 17px; fill: rgb(0, 0, 0); opacity: 1; font-weight: normal; white-space: pre;">Particle size (mm)</text></g><g class="g-ytitle" transform="translate(4.666015625,0)"><text class="ytitle" transform="rotate(-90,10.334375000000001,191)" x="10.334375000000001" y="191" text-anchor="middle" style="font-family: Arial; font-size: 17px; fill: rgb(0, 0, 0); opacity: 1; font-weight: normal; white-space: pre;">Volumn pdf (mm^(-1))</text></g></g></svg>